<svg version="1.1" viewBox="0.0 0.0 720.0 540.0" fill="none" stroke="none" stroke-linecap="square" stroke-miterlimit="10" xmlns:xlink="http://www.w3.org/1999/xlink" xmlns="http://www.w3.org/2000/svg"><clipPath id="p.0"><path d="m0 0l720.0 0l0 540.0l-720.0 0l0 -540.0z" clip-rule="nonzero"/></clipPath><g clip-path="url(#p.0)"><path fill="#000000" fill-opacity="0.0" d="m0 0l720.0 0l0 540.0l-720.0 0z" fill-rule="evenodd"/><path fill="#000000" fill-opacity="0.0" d="m128.20473 60.918636l463.59058 0l0 98.078735l-463.59058 0z" fill-rule="evenodd"/><path fill="#000000" d="m144.71875 112.233635q2.40625 -0.0625 3.921875 -1.296875q1.515625 -1.234375 2.015625 -3.390625q0.5 -2.15625 0.53125 -7.375q0.03125 -5.21875 0.1875 -6.875q0.28125 -2.625 1.046875 -4.21875q0.765625 -1.59375 1.890625 -2.546875q1.125 -0.953125 2.875 -1.453125q1.1875 -0.3125 3.875 -0.3125l1.75 0l0 4.90625l-0.96875 0q-3.25 0 -4.3125 1.171875q-1.0625 1.171875 -1.0625 5.234375q0 8.1875 -0.34375 10.34375q-0.5625 3.34375 -1.921875 5.15625q-1.359375 1.8125 -4.265625 3.21875q3.4375 1.4375 4.984375 4.390625q1.546875 2.953125 1.546875 9.671883q0 6.09375 0.125 7.25q0.25 2.125 1.265625 2.96875q1.015625 0.84375 3.984375 0.84375l0.96875 0l0 4.90625l-1.75 0q-3.0625 0 -4.4375 -0.5q-2.0 -0.71875 -3.3125 -2.328125q-1.3125 -1.609375 -1.703125 -4.078125q-0.390625 -2.46875 -0.421875 -8.09375q-0.03125 -5.6250076 -0.53125 -7.7812576q-0.5 -2.15625 -2.015625 -3.40625q-1.515625 -1.25 -3.921875 -1.3125l0 -5.09375zm43.4375 19.125008l-5.625 0l0 -35.843758q-2.03125 1.9375 -5.328125 3.875q-3.296875 1.9375 -5.921875 2.90625l0 -5.4375q4.71875 -2.21875 8.25 -5.375q3.53125 -3.15625 5.0 -6.125l3.625 0l0 46.000008zm17.4375 0l0 -6.4062576l6.40625 0l0 6.4062576q0 3.53125 -1.25 5.703125q-1.25 2.171875 -3.96875 3.359375l-1.5625 -2.40625q1.78125 -0.78125 2.625 -2.296875q0.84375 -1.515625 0.9375 -4.359375l-3.1875 0zm62.09375 -5.4062576l0 5.4062576l-30.28125 0q-0.0625 -2.03125 0.65625 -3.9062576q1.15625 -3.09375 3.703125 -6.09375q2.546875 -3.0 7.359375 -6.9375q7.46875 -6.125 10.09375 -9.703125q2.625 -3.578125 2.625 -6.765625q0 -3.34375 -2.390625 -5.640625q-2.390625 -2.296875 -6.234375 -2.296875q-4.0625 0 -6.5 2.4375q-2.4375 2.4375 -2.46875 6.75l-5.78125 -0.59375q0.59375 -6.46875 4.46875 -9.859375q3.875 -3.390625 10.40625 -3.390625q6.59375 0 10.4375 3.65625q3.84375 3.65625 3.84375 9.0625q0 2.75 -1.125 5.40625q-1.125 2.65625 -3.734375 5.59375q-2.609375 2.9375 -8.671875 8.0625q-5.0625 4.25 -6.5 5.765625q-1.4375 1.515625 -2.375 3.046875l22.46875 0zm9.0625 5.4062576l0 -6.4062576l6.40625 0l0 6.4062576q0 3.53125 -1.25 5.703125q-1.25 2.171875 -3.96875 3.359375l-1.5625 -2.40625q1.78125 -0.78125 2.625 -2.296875q0.84375 -1.515625 0.9375 -4.359375l-3.1875 0zm32.5625 -12.093758l5.625 -0.75q0.96875 4.78125 3.296875 6.890625q2.328125 2.109375 5.671875 2.109375q3.96875 0 6.703125 -2.75q2.734375 -2.75 2.734375 -6.8125q0 -3.875 -2.53125 -6.390625q-2.53125 -2.515625 -6.4375 -2.515625q-1.59375 0 -3.96875 0.625l0.625 -4.9375q0.5625 0.0625 0.90625 0.0625q3.59375 0 6.46875 -1.875q2.875 -1.875 2.875 -5.78125q0 -3.09375 -2.09375 -5.125q-2.09375 -2.03125 -5.40625 -2.03125q-3.28125 0 -5.46875 2.0625q-2.1875 2.0625 -2.8125 6.1875l-5.625 -1.0q1.03125 -5.65625 4.6875 -8.765625q3.65625 -3.109375 9.09375 -3.109375q3.75 0 6.90625 1.609375q3.15625 1.609375 4.828125 4.390625q1.671875 2.78125 1.671875 5.90625q0 2.96875 -1.59375 5.40625q-1.59375 2.4375 -4.71875 3.875q4.0625 0.9375 6.3125 3.890625q2.25 2.953125 2.25 7.390625q0 6.0 -4.375 10.171875q-4.375 4.1718826 -11.0625 4.1718826q-6.03125 0 -10.015625 -3.59375q-3.984375 -3.5937576 -4.546875 -9.312508zm38.59375 12.093758l0 -6.4062576l6.40625 0l0 6.4062576q0 3.53125 -1.25 5.703125q-1.25 2.171875 -3.96875 3.359375l-1.5625 -2.40625q1.78125 -0.78125 2.625 -2.296875q0.84375 -1.515625 0.9375 -4.359375l-3.1875 0zm50.5625 0l0 -10.968758l-19.875 0l0 -5.15625l20.90625 -29.6875l4.59375 0l0 29.6875l6.1875 0l0 5.15625l-6.1875 0l0 10.968758l-5.625 0zm0 -16.125008l0 -20.65625l-14.34375 20.65625l14.34375 0zm20.59375 16.125008l0 -6.4062576l6.40625 0l0 6.4062576q0 3.53125 -1.25 5.703125q-1.25 2.171875 -3.96875 3.359375l-1.5625 -2.40625q1.78125 -0.78125 2.625 -2.296875q0.84375 -1.515625 0.9375 -4.359375l-3.1875 0zm32.53125 -12.000008l5.90625 -0.5q0.65625 4.3125 3.046875 6.484375q2.390625 2.171875 5.765625 2.171875q4.0625 0 6.875 -3.0625q2.8125 -3.0625 2.8125 -8.125q0 -4.8125 -2.703125 -7.59375q-2.703125 -2.78125 -7.078125 -2.78125q-2.71875 0 -4.90625 1.234375q-2.1875 1.234375 -3.4375 3.203125l-5.28125 -0.6875l4.4375 -23.53125l22.78125 0l0 5.375l-18.28125 0l-2.46875 12.3125q4.125 -2.875 8.65625 -2.875q6.0 0 10.125 4.15625q4.125 4.15625 4.125 10.6875q0 6.21875 -3.625 10.75q-4.40625 5.5625076 -12.03125 5.5625076q-6.25 0 -10.203125 -3.5q-3.953125 -3.5000076 -4.515625 -9.281258zm38.625 12.000008l0 -6.4062576l6.40625 0l0 6.4062576q0 3.53125 -1.25 5.703125q-1.25 2.171875 -3.96875 3.359375l-1.5625 -2.40625q1.78125 -0.78125 2.625 -2.296875q0.84375 -1.515625 0.9375 -4.359375l-3.1875 0zm61.71875 -34.593758l-5.59375 0.4375q-0.75 -3.3125 -2.125 -4.8125q-2.28125 -2.40625 -5.625 -2.40625q-2.6875 0 -4.71875 1.5q-2.65625 1.9375 -4.1875 5.65625q-1.53125 3.71875 -1.59375 10.59375q2.03125 -3.09375 4.96875 -4.59375q2.9375 -1.5 6.15625 -1.5q5.625 0 9.578125 4.140625q3.953125 4.140625 3.953125 10.703125q0 4.3125 -1.859375 8.015625q-1.859375 3.7031326 -5.109375 5.6718826q-3.25 1.96875 -7.375 1.96875q-7.03125 0 -11.46875 -5.1718826q-4.4375 -5.171875 -4.4375 -17.046875q0 -13.28125 4.90625 -19.3125q4.28125 -5.25 11.53125 -5.25q5.40625 0 8.859375 3.03125q3.453125 3.03125 4.140625 8.375zm-22.96875 19.75q0 2.90625 1.234375 5.5625q1.234375 2.65625 3.453125 4.046875q2.21875 1.390625 4.65625 1.390625q3.5625 0 6.125 -2.875q2.5625 -2.875 2.5625 -7.8125q0 -4.75 -2.53125 -7.484375q-2.53125 -2.734375 -6.375 -2.734375q-3.8125 0 -6.46875 2.734375q-2.65625 2.734375 -2.65625 7.171875zm46.28125 -4.28125l0 5.09375q-2.40625 0.0625 -3.921875 1.3125q-1.515625 1.25 -2.015625 3.390625q-0.5 2.140625 -0.53125 7.3593826q-0.03125 5.21875 -0.1875 6.875q-0.28125 2.65625 -1.046875 4.234375q-0.765625 1.578125 -1.890625 2.53125q-1.125 0.953125 -2.875 1.453125q-1.1875 0.34375 -3.875 0.34375l-1.75 0l0 -4.90625l0.96875 0q3.25 0 4.3125 -1.171875q1.0625 -1.171875 1.0625 -5.265625q0 -7.8125076 0.28125 -9.906258q0.5 -3.46875 2.0 -5.546875q1.5 -2.078125 4.25 -3.234375q-3.59375 -1.71875 -5.0625 -4.546875q-1.46875 -2.828125 -1.46875 -9.546875q0 -6.09375 -0.15625 -7.28125q-0.21875 -2.09375 -1.234375 -2.921875q-1.015625 -0.828125 -3.984375 -0.828125l-0.96875 0l0 -4.90625l1.75 0q3.0625 0 4.4375 0.5q2.0 0.6875 3.3125 2.3125q1.3125 1.625 1.703125 4.09375q0.390625 2.46875 0.421875 8.09375q0.03125 5.625 0.53125 7.765625q0.5 2.140625 2.015625 3.390625q1.515625 1.25 3.921875 1.3125z" fill-rule="nonzero"/><path fill="#000000" fill-opacity="0.0" d="m97.30708 366.021l525.38586 0l0 98.078735l-525.38586 0z" fill-rule="evenodd"/><path fill="#000000" d="m109.125 417.336q2.40625 -0.0625 3.921875 -1.296875q1.515625 -1.234375 2.015625 -3.390625q0.5 -2.15625 0.53125 -7.375q0.03125 -5.21875 0.1875 -6.875q0.28125 -2.625 1.046875 -4.21875q0.765625 -1.59375 1.890625 -2.546875q1.125 -0.953125 2.875 -1.453125q1.1875 -0.3125 3.875 -0.3125l1.75 0l0 4.90625l-0.96875 0q-3.25 0 -4.3125 1.171875q-1.0625 1.171875 -1.0625 5.234375q0 8.1875 -0.34375 10.34375q-0.5625 3.34375 -1.921875 5.15625q-1.359375 1.8125 -4.265625 3.21875q3.4375 1.4375 4.984375 4.390625q1.546875 2.953125 1.546875 9.671875q0 6.09375 0.125 7.25q0.25 2.125 1.265625 2.96875q1.015625 0.84375 3.984375 0.84375l0.96875 0l0 4.90625l-1.75 0q-3.0625 0 -4.4375 -0.5q-2.0 -0.71875 -3.3125 -2.328125q-1.3125 -1.609375 -1.703125 -4.078125q-0.390625 -2.46875 -0.421875 -8.09375q-0.03125 -5.625 -0.53125 -7.78125q-0.5 -2.15625 -2.015625 -3.40625q-1.515625 -1.25 -3.921875 -1.3125l0 -5.09375zm51.8125 13.71875l0 5.40625l-30.28125 0q-0.0625 -2.03125 0.65625 -3.90625q1.15625 -3.09375 3.703125 -6.09375q2.546875 -3.0 7.359375 -6.9375q7.46875 -6.125 10.09375 -9.703125q2.625 -3.578125 2.625 -6.765625q0 -3.34375 -2.390625 -5.640625q-2.390625 -2.296875 -6.234375 -2.296875q-4.0625 0 -6.5 2.4375q-2.4375 2.4375 -2.46875 6.75l-5.78125 -0.59375q0.59375 -6.46875 4.46875 -9.859375q3.875 -3.390625 10.40625 -3.390625q6.59375 0 10.4375 3.65625q3.84375 3.65625 3.84375 9.0625q0 2.75 -1.125 5.40625q-1.125 2.65625 -3.734375 5.59375q-2.609375 2.9375 -8.671875 8.0625q-5.0625 4.25 -6.5 5.765625q-1.4375 1.515625 -2.375 3.046875l22.46875 0zm9.0625 5.40625l0 -6.40625l6.40625 0l0 6.40625q0 3.53125 -1.25 5.703125q-1.25 2.171875 -3.96875 3.359375l-1.5625 -2.40625q1.78125 -0.78125 2.625 -2.296875q0.84375 -1.515625 0.9375 -4.359375l-3.1875 0zm50.5625 0l0 -10.96875l-19.875 0l0 -5.15625l20.90625 -29.6875l4.59375 0l0 29.6875l6.1875 0l0 5.15625l-6.1875 0l0 10.96875l-5.625 0zm0 -16.125l0 -20.65625l-14.34375 20.65625l14.34375 0zm20.59375 16.125l0 -6.40625l6.40625 0l0 6.40625q0 3.53125 -1.25 5.703125q-1.25 2.171875 -3.96875 3.359375l-1.5625 -2.40625q1.78125 -0.78125 2.625 -2.296875q0.84375 -1.515625 0.9375 -4.359375l-3.1875 0zm61.71875 -34.59375l-5.59375 0.4375q-0.75 -3.3125 -2.125 -4.8125q-2.28125 -2.40625 -5.625 -2.40625q-2.6875 0 -4.71875 1.5q-2.65625 1.9375 -4.1875 5.65625q-1.53125 3.71875 -1.59375 10.59375q2.03125 -3.09375 4.96875 -4.59375q2.9375 -1.5 6.15625 -1.5q5.625 0 9.578125 4.140625q3.953125 4.140625 3.953125 10.703125q0 4.3125 -1.859375 8.015625q-1.859375 3.703125 -5.109375 5.671875q-3.25 1.96875 -7.375 1.96875q-7.03125 0 -11.46875 -5.171875q-4.4375 -5.171875 -4.4375 -17.046875q0 -13.28125 4.90625 -19.3125q4.28125 -5.25 11.53125 -5.25q5.40625 0 8.859375 3.03125q3.453125 3.03125 4.140625 8.375zm-22.96875 19.75q0 2.90625 1.234375 5.5625q1.234375 2.65625 3.453125 4.046875q2.21875 1.390625 4.65625 1.390625q3.5625 0 6.125 -2.875q2.5625 -2.875 2.5625 -7.8125q0 -4.75 -2.53125 -7.484375q-2.53125 -2.734375 -6.375 -2.734375q-3.8125 0 -6.46875 2.734375q-2.65625 2.734375 -2.65625 7.171875zm32.40625 14.84375l0 -6.40625l6.40625 0l0 6.40625q0 3.53125 -1.25 5.703125q-1.25 2.171875 -3.96875 3.359375l-1.5625 -2.40625q1.78125 -0.78125 2.625 -2.296875q0.84375 -1.515625 0.9375 -4.359375l-3.1875 0zm41.18753 -24.84375q-3.5000305 -1.28125 -5.1875305 -3.65625q-1.6875 -2.375 -1.6875 -5.6875q0 -5.0 3.59375 -8.40625q3.5937805 -3.40625 9.5625305 -3.40625q6.0 0 9.65625 3.484375q3.65625 3.484375 3.65625 8.484375q0 3.1875 -1.671875 5.546875q-1.671875 2.359375 -5.078125 3.640625q4.21875 1.375 6.421875 4.4375q2.203125 3.0625 2.203125 7.3125q0 5.875 -4.15625 9.875q-4.15625 4.0 -10.9375 4.0q-6.7812805 0 -10.9375305 -4.015625q-4.15625 -4.015625 -4.15625 -10.015625q0 -4.46875 2.265625 -7.484375q2.265625 -3.015625 6.4531555 -4.109375zm-1.1250305 -9.53125q0 3.25 2.0937805 5.3125q2.09375 2.0625 5.4375 2.0625q3.25 0 5.328125 -2.046875q2.078125 -2.046875 2.078125 -5.015625q0 -3.09375 -2.140625 -5.203125q-2.140625 -2.109375 -5.328125 -2.109375q-3.21875 0 -5.34375 2.0625q-2.1250305 2.0625 -2.1250305 4.9375zm-1.8125 21.15625q0 2.40625 1.140625 4.65625q1.140625 2.25 3.3906555 3.484375q2.25 1.234375 4.84375 1.234375q4.03125 0 6.65625 -2.59375q2.625 -2.59375 2.625 -6.59375q0 -4.0625 -2.703125 -6.71875q-2.703125 -2.65625 -6.765625 -2.65625q-3.96875 0 -6.5781555 2.625q-2.609375 2.625 -2.609375 6.5625zm32.90628 13.21875l0 -6.40625l6.40625 0l0 6.40625q0 3.53125 -1.25 5.703125q-1.25 2.171875 -3.96875 3.359375l-1.5625 -2.40625q1.78125 -0.78125 2.625 -2.296875q0.84375 -1.515625 0.9375 -4.359375l-3.1875 0zm53.71875 0l-5.625 0l0 -35.84375q-2.03125 1.9375 -5.328125 3.875q-3.296875 1.9375 -5.921875 2.90625l0 -5.4375q4.71875 -2.21875 8.25 -5.375q3.53125 -3.15625 5.0 -6.125l3.625 0l0 46.0zm14.40625 -22.59375q0 -8.125 1.671875 -13.078125q1.671875 -4.953125 4.96875 -7.640625q3.296875 -2.6875 8.296875 -2.6875q3.6875 0 6.46875 1.484375q2.78125 1.484375 4.59375 4.28125q1.8125 2.796875 2.84375 6.8125q1.03125 4.015625 1.03125 10.828125q0 8.0625 -1.65625 13.015625q-1.65625 4.953125 -4.953125 7.65625q-3.296875 2.703125 -8.328125 2.703125q-6.625 0 -10.40625 -4.75q-4.53125 -5.71875 -4.53125 -18.625zm5.78125 0q0 11.28125 2.640625 15.015625q2.640625 3.734375 6.515625 3.734375q3.875 0 6.515625 -3.75q2.640625 -3.75 2.640625 -15.0q0 -11.3125 -2.640625 -15.03125q-2.640625 -3.71875 -6.578125 -3.71875q-3.875 0 -6.1875 3.28125q-2.90625 4.1875 -2.90625 15.46875zm32.84375 22.59375l0 -6.40625l6.40625 0l0 6.40625q0 3.53125 -1.25 5.703125q-1.25 2.171875 -3.96875 3.359375l-1.5625 -2.40625q1.78125 -0.78125 2.625 -2.296875q0.84375 -1.515625 0.9375 -4.359375l-3.1875 0zm53.71872 0l-5.625 0l0 -35.84375q-2.03125 1.9375 -5.328125 3.875q-3.296875 1.9375 -5.921875 2.90625l0 -5.4375q4.71875 -2.21875 8.25 -5.375q3.53125 -3.15625 5.0 -6.125l3.625 0l0 46.0zm43.96875 -5.40625l0 5.40625l-30.28125 0q-0.0625 -2.03125 0.65625 -3.90625q1.15625 -3.09375 3.703125 -6.09375q2.546875 -3.0 7.359375 -6.9375q7.46875 -6.125 10.09375 -9.703125q2.625 -3.578125 2.625 -6.765625q0 -3.34375 -2.390625 -5.640625q-2.390625 -2.296875 -6.234375 -2.296875q-4.0625 0 -6.5 2.4375q-2.4375 2.4375 -2.46875 6.75l-5.78125 -0.59375q0.59375 -6.46875 4.46875 -9.859375q3.875 -3.390625 10.40625 -3.390625q6.59375 0 10.4375 3.65625q3.84375 3.65625 3.84375 9.0625q0 2.75 -1.125 5.40625q-1.125 2.65625 -3.734375 5.59375q-2.609375 2.9375 -8.671875 8.0625q-5.0625 4.25 -6.5 5.765625q-1.4375 1.515625 -2.375 3.046875l22.46875 0zm22.9375 -13.71875l0 5.09375q-2.40625 0.0625 -3.921875 1.3125q-1.515625 1.25 -2.015625 3.390625q-0.5 2.140625 -0.53125 7.359375q-0.03125 5.21875 -0.1875 6.875q-0.28125 2.65625 -1.046875 4.234375q-0.765625 1.578125 -1.890625 2.53125q-1.125 0.953125 -2.875 1.453125q-1.1875 0.34375 -3.875 0.34375l-1.75 0l0 -4.90625l0.96875 0q3.25 0 4.3125 -1.171875q1.0625 -1.171875 1.0625 -5.265625q0 -7.8125 0.28125 -9.90625q0.5 -3.46875 2.0 -5.546875q1.5 -2.078125 4.25 -3.234375q-3.59375 -1.71875 -5.0625 -4.546875q-1.46875 -2.828125 -1.46875 -9.546875q0 -6.09375 -0.15625 -7.28125q-0.21875 -2.09375 -1.234375 -2.921875q-1.015625 -0.828125 -3.984375 -0.828125l-0.96875 0l0 -4.90625l1.75 0q3.0625 0 4.4375 0.5q2.0 0.6875 3.3125 2.3125q1.3125 1.625 1.703125 4.09375q0.390625 2.46875 0.421875 8.09375q0.03125 5.625 0.53125 7.765625q0.5 2.140625 2.015625 3.390625q1.515625 1.25 3.921875 1.3125z" fill-rule="nonzero"/><path fill="#000000" fill-opacity="0.0" d="m185.85039 145.58267l-36.125977 230.23624" fill-rule="evenodd"/><path stroke="#000000" stroke-width="3.0" stroke-linejoin="round" stroke-linecap="butt" d="m183.06018 163.36511l-30.545563 194.67136" fill-rule="evenodd"/><path fill="#000000" stroke="#000000" stroke-width="3.0" stroke-linecap="butt" d="m187.95549 164.13322l-2.7849274 -14.21785l-7.0056763 12.68161z" fill-rule="evenodd"/><path fill="#000000" stroke="#000000" stroke-width="3.0" stroke-linecap="butt" d="m147.61932 357.26837l2.7849274 14.217834l7.0056763 -12.68161z" fill-rule="evenodd"/><path fill="#000000" fill-opacity="0.0" d="m255.54068 145.58267l-30.456696 229.22836" fill-rule="evenodd"/><path stroke="#000000" stroke-width="3.0" stroke-linejoin="round" stroke-linecap="butt" d="m253.16992 163.42587l-25.71518 193.54196" fill-rule="evenodd"/><path fill="#000000" stroke="#000000" stroke-width="3.0" stroke-linecap="butt" d="m258.08197 164.0785l-3.118927 -14.148331l-6.7051544 12.843048z" fill-rule="evenodd"/><path fill="#000000" stroke="#000000" stroke-width="3.0" stroke-linecap="butt" d="m222.54271 356.3152l3.1189117 14.148346l6.7051544 -12.843048z" fill-rule="evenodd"/><path fill="#000000" fill-opacity="0.0" d="m325.23096 148.17586l-36.125977 230.23622" fill-rule="evenodd"/><path stroke="#000000" stroke-width="3.0" stroke-linejoin="round" stroke-linecap="butt" d="m322.44077 165.95828l-30.545563 194.67136" fill-rule="evenodd"/><path fill="#000000" stroke="#000000" stroke-width="3.0" stroke-linecap="butt" d="m327.33606 166.7264l-2.784912 -14.21785l-7.0056763 12.681625z" fill-rule="evenodd"/><path fill="#000000" stroke="#000000" stroke-width="3.0" stroke-linecap="butt" d="m286.9999 359.86154l2.784912 14.217834l7.0056763 -12.68161z" fill-rule="evenodd"/><path fill="#000000" fill-opacity="0.0" d="m396.47244 148.17586l-36.125977 230.23622" fill-rule="evenodd"/><path stroke="#000000" stroke-width="3.0" stroke-linejoin="round" stroke-linecap="butt" d="m393.68222 165.95828l-30.545532 194.67136" fill-rule="evenodd"/><path fill="#000000" stroke="#000000" stroke-width="3.0" stroke-linecap="butt" d="m398.57755 166.7264l-2.7849426 -14.21785l-7.0056763 12.681625z" fill-rule="evenodd"/><path fill="#000000" stroke="#000000" stroke-width="3.0" stroke-linecap="butt" d="m358.24136 359.86154l2.7849426 14.217834l7.0056763 -12.68161z" fill-rule="evenodd"/><path fill="#000000" fill-opacity="0.0" d="m472.8714 148.17586l-19.590546 234.89763" fill-rule="evenodd"/><path stroke="#000000" stroke-width="3.0" stroke-linejoin="round" stroke-linecap="butt" d="m471.37537 166.11357l-16.59851 199.0222" fill-rule="evenodd"/><path fill="#000000" stroke="#000000" stroke-width="3.0" stroke-linecap="butt" d="m476.31345 166.5254l-3.806549 -13.979019l-6.06958 13.15535z" fill-rule="evenodd"/><path fill="#000000" stroke="#000000" stroke-width="3.0" stroke-linecap="butt" d="m449.8388 364.72394l3.806549 13.979034l6.0695496 -13.155365z" fill-rule="evenodd"/><path fill="#000000" fill-opacity="0.0" d="m538.9685 146.61679l15.496033 237.48032" fill-rule="evenodd"/><path stroke="#000000" stroke-width="3.0" stroke-linejoin="round" stroke-linecap="butt" d="m540.14056 164.5786l13.151978 201.55669" fill-rule="evenodd"/><path fill="#000000" stroke="#000000" stroke-width="3.0" stroke-linecap="butt" d="m545.0852 164.25595l-5.8311157 -13.262756l-4.0582275 13.908051z" fill-rule="evenodd"/><path fill="#000000" stroke="#000000" stroke-width="3.0" stroke-linecap="butt" d="m548.34784 366.45798l5.8311768 13.262726l4.0581665 -13.908051z" fill-rule="evenodd"/></g></svg>