<svg version="1.1" viewBox="0.0 0.0 720.0 540.0" fill="none" stroke="none" stroke-linecap="square" stroke-miterlimit="10" xmlns:xlink="http://www.w3.org/1999/xlink" xmlns="http://www.w3.org/2000/svg"><clipPath id="p.0"><path d="m0 0l720.0 0l0 540.0l-720.0 0l0 -540.0z" clip-rule="nonzero"/></clipPath><g clip-path="url(#p.0)"><path fill="#000000" fill-opacity="0.0" d="m0 0l720.0 0l0 540.0l-720.0 0z" fill-rule="evenodd"/><path fill="#000000" fill-opacity="0.0" d="m161.2441 37.170605l397.51184 0l0 56.787403l-397.51184 0z" fill-rule="evenodd"/><path fill="#000000" d="m171.57222 65.59373q0 -4.062496 0.828125 -6.531246q0.84375 -2.484375 2.484375 -3.828125q1.65625 -1.34375 4.15625 -1.34375q1.84375 0 3.234375 0.75q1.390625 0.734375 2.296875 2.140625q0.90625 1.390625 1.421875 3.40625q0.515625 2.0 0.515625 5.406246q0 4.03125 -0.828125 6.515625q-0.828125 2.46875 -2.484375 3.828125q-1.640625 1.34375 -4.15625 1.34375q-3.3125 0 -5.203125 -2.375q-2.265625 -2.859375 -2.265625 -9.3125zm2.890625 0q0 5.640625 1.3125 7.515625q1.328125 1.859375 3.265625 1.859375q1.9375 0 3.25 -1.875q1.328125 -1.875 1.328125 -7.5q0 -5.656246 -1.328125 -7.515621q-1.3125 -1.859375 -3.28125 -1.859375q-1.9375 0 -3.09375 1.640625q-1.453125 2.09375 -1.453125 7.734371zm16.484375 11.296875l0 -3.203125l3.203125 0l0 3.203125l-3.203125 0zm17.90625 0l-2.8125 0l0 -17.921871q-1.015625 0.96875 -2.671875 1.9375q-1.640625 0.96875 -2.953125 1.453125l0 -2.71875q2.359375 -1.109375 4.125 -2.6875q1.765625 -1.578125 2.5 -3.0625l1.8125 0l0 22.999996zm25.109375 0l0 -5.484375l-9.9375 0l0 -2.578125l10.453125 -14.843746l2.296875 0l0 14.843746l3.09375 0l0 2.578125l-3.09375 0l0 5.484375l-2.8125 0zm0 -8.0625l0 -10.328121l-7.171875 10.328121l7.171875 0zm32.26561 -9.234371l-2.796875 0.21875q-0.375 -1.65625 -1.0625 -2.40625q-1.140625 -1.203125 -2.8125 -1.203125q-1.34375 0 -2.359375 0.75q-1.3281097 0.96875 -2.0937347 2.828125q-0.765625 1.859375 -0.796875 5.296871q1.015625 -1.5468712 2.4843597 -2.2968712q1.46875 -0.75 3.078125 -0.75q2.8125 0 4.78125 2.0781212q1.984375 2.0625 1.984375 5.34375q0 2.15625 -0.9375 4.015625q-0.921875 1.84375 -2.546875 2.828125q-1.625 0.984375 -3.6875 0.984375q-3.5156097 0 -5.7343597 -2.578125q-2.21875 -2.59375 -2.21875 -8.53125q0 -6.640621 2.453125 -9.656246q2.1406097 -2.625 5.7656097 -2.625q2.703125 0 4.421875 1.515625q1.734375 1.515625 2.078125 4.1875zm-11.48436 9.874996q0 1.453125 0.609375 2.78125q0.625 1.328125 1.7343597 2.03125q1.109375 0.6875 2.328125 0.6875q1.78125 0 3.0625 -1.4375q1.28125 -1.4375 1.28125 -3.90625q0 -2.375 -1.265625 -3.734375q-1.265625 -1.375 -3.1875 -1.375q-1.90625 0 -3.234375 1.375q-1.3281097 1.359375 -1.3281097 3.578125zm23.999985 2.125l2.703125 -0.25q0.34375 1.90625 1.3125 2.765625q0.96875 0.859375 2.484375 0.859375q1.296875 0 2.265625 -0.59375q0.984375 -0.59375 1.609375 -1.578125q0.625 -1.0 1.046875 -2.6875q0.421875 -1.6875 0.421875 -3.4375q0 -0.1875 -0.015625 -0.5625q-0.84375 1.34375 -2.3125 2.1875q-1.453125 0.828125 -3.15625 0.828125q-2.84375 0 -4.8125 -2.0625q-1.96875 -2.0625 -1.96875 -5.437496q0 -3.484375 2.046875 -5.609375q2.0625 -2.125 5.15625 -2.125q2.234375 0 4.078125 1.203125q1.859375 1.203125 2.8125 3.4375q0.96875 2.21875 0.96875 6.437496q0 4.390625 -0.953125 7.0q-0.953125 2.59375 -2.84375 3.953125q-1.875 1.359375 -4.40625 1.359375q-2.6875 0 -4.390625 -1.484375q-1.703125 -1.5 -2.046875 -4.203125zm11.515625 -10.109371q0 -2.421875 -1.296875 -3.84375q-1.28125 -1.421875 -3.09375 -1.421875q-1.875 0 -3.265625 1.53125q-1.390625 1.53125 -1.390625 3.96875q0 2.1875 1.3125 3.5624962q1.328125 1.359375 3.265625 1.359375q1.953125 0 3.203125 -1.359375q1.265625 -1.3749962 1.265625 -3.7968712zm15.171875 10.109371l2.703125 -0.25q0.34375 1.90625 1.3125 2.765625q0.96875 0.859375 2.484375 0.859375q1.296875 0 2.265625 -0.59375q0.984375 -0.59375 1.609375 -1.578125q0.625 -1.0 1.046875 -2.6875q0.421875 -1.6875 0.421875 -3.4375q0 -0.1875 -0.015625 -0.5625q-0.84375 1.34375 -2.3125 2.1875q-1.453125 0.828125 -3.15625 0.828125q-2.84375 0 -4.8125 -2.0625q-1.96875 -2.0625 -1.96875 -5.437496q0 -3.484375 2.046875 -5.609375q2.0625 -2.125 5.15625 -2.125q2.234375 0 4.078125 1.203125q1.859375 1.203125 2.8125 3.4375q0.96875 2.21875 0.96875 6.437496q0 4.390625 -0.953125 7.0q-0.953125 2.59375 -2.84375 3.953125q-1.875 1.359375 -4.40625 1.359375q-2.6875 0 -4.390625 -1.484375q-1.703125 -1.5 -2.046875 -4.203125zm11.515625 -10.109371q0 -2.421875 -1.296875 -3.84375q-1.28125 -1.421875 -3.09375 -1.421875q-1.875 0 -3.265625 1.53125q-1.390625 1.53125 -1.390625 3.96875q0 2.1875 1.3125 3.5624962q1.328125 1.359375 3.265625 1.359375q1.953125 0 3.203125 -1.359375q1.265625 -1.3749962 1.265625 -3.7968712zm29.53125 12.703121l0 2.703125l-15.140625 0q-0.03125 -1.015625 0.328125 -1.953125q0.578125 -1.546875 1.84375 -3.046875q1.28125 -1.5 3.6875 -3.46875q3.734375 -3.0625 5.046875 -4.843746q1.3125 -1.796875 1.3125 -3.390625q0 -1.671875 -1.203125 -2.8125q-1.1875 -1.15625 -3.109375 -1.15625q-2.03125 0 -3.25 1.21875q-1.21875 1.21875 -1.234375 3.375l-2.890625 -0.296875q0.296875 -3.234375 2.234375 -4.921875q1.9375 -1.703125 5.203125 -1.703125q3.296875 0 5.21875 1.828125q1.921875 1.828125 1.921875 4.53125q0 1.375 -0.5625 2.703125q-0.5625 1.3281212 -1.875 2.7968712q-1.296875 1.46875 -4.328125 4.03125q-2.53125 2.125 -3.25 2.890625q-0.71875 0.75 -1.1875 1.515625l11.234375 0zm11.90625 -8.59375q0 -4.062496 0.828125 -6.531246q0.84375 -2.484375 2.484375 -3.828125q1.65625 -1.34375 4.15625 -1.34375q1.84375 0 3.234375 0.75q1.390625 0.734375 2.296875 2.140625q0.90625 1.390625 1.421875 3.40625q0.515625 2.0 0.515625 5.406246q0 4.03125 -0.828125 6.515625q-0.828125 2.46875 -2.484375 3.828125q-1.640625 1.34375 -4.15625 1.34375q-3.3125 0 -5.203125 -2.375q-2.265625 -2.859375 -2.265625 -9.3125zm2.890625 0q0 5.640625 1.3125 7.515625q1.328125 1.859375 3.265625 1.859375q1.9375 0 3.25 -1.875q1.328125 -1.875 1.328125 -7.5q0 -5.656246 -1.328125 -7.515621q-1.3125 -1.859375 -3.28125 -1.859375q-1.9375 0 -3.09375 1.640625q-1.453125 2.09375 -1.453125 7.734371zm23.984375 -8.609371l0 -2.703125l14.828125 0l0 2.1875q-2.1875 2.328125 -4.34375 6.1875q-2.140625 3.8593712 -3.3125 7.937496q-0.84375 2.875 -1.078125 6.296875l-2.890625 0q0.046875 -2.703125 1.0625 -6.53125q1.015625 -3.828125 2.90625 -7.374996q1.90625 -3.5625 4.046875 -6.0l-11.21875 0zm26.5 13.906246l2.953125 -0.25q0.328125 2.15625 1.515625 3.25q1.203125 1.078125 2.890625 1.078125q2.03125 0 3.4375 -1.53125q1.40625 -1.53125 1.40625 -4.0625q0 -2.40625 -1.359375 -3.796875q-1.34375 -1.390625 -3.53125 -1.390625q-1.359375 0 -2.453125 0.625q-1.09375 0.609375 -1.71875 1.59375l-2.640625 -0.34375l2.21875 -11.765621l11.390625 0l0 2.6875l-9.140625 0l-1.234375 6.15625q2.0625 -1.4375 4.328125 -1.4375q3.0 0 5.0625 2.078125q2.0625 2.0781212 2.0625 5.343746q0 3.109375 -1.8125 5.375q-2.203125 2.78125 -6.015625 2.78125q-3.125 0 -5.109375 -1.75q-1.96875 -1.75 -2.25 -4.640625zm19.375 6.0l0 -3.203125l3.203125 0l0 3.203125l-3.203125 0zm8.890625 0l0 -3.203125l3.203125 0l0 3.203125l-3.203125 0zm8.890625 0l0 -3.203125l3.203125 0l0 3.203125l-3.203125 0z" fill-rule="nonzero"/><path fill="#000000" fill-opacity="0.0" d="m161.2441 86.72966l397.51184 0l0 56.7874l-397.51184 0z" fill-rule="evenodd"/><path fill="#000000" d="m171.57222 115.15279q0 -4.0625 0.828125 -6.53125q0.84375 -2.484375 2.484375 -3.828125q1.65625 -1.34375 4.15625 -1.34375q1.84375 0 3.234375 0.75q1.390625 0.734375 2.296875 2.140625q0.90625 1.390625 1.421875 3.40625q0.515625 2.0 0.515625 5.40625q0 4.03125 -0.828125 6.515625q-0.828125 2.46875 -2.484375 3.828125q-1.640625 1.34375 -4.15625 1.34375q-3.3125 0 -5.203125 -2.375q-2.265625 -2.859375 -2.265625 -9.3125zm2.890625 0q0 5.640625 1.3125 7.515625q1.328125 1.859375 3.265625 1.859375q1.9375 0 3.25 -1.875q1.328125 -1.875 1.328125 -7.5q0 -5.65625 -1.328125 -7.515625q-1.3125 -1.859375 -3.28125 -1.859375q-1.9375 0 -3.09375 1.640625q-1.453125 2.09375 -1.453125 7.734375zm16.484375 11.296875l0 -3.203125l3.203125 0l0 3.203125l-3.203125 0zm16.328125 0l0 -5.484375l-9.9375 0l0 -2.578125l10.453125 -14.84375l2.296875 0l0 14.84375l3.09375 0l0 2.578125l-3.09375 0l0 5.484375l-2.8125 0zm0 -8.0625l0 -10.328125l-7.171875 10.328125l7.171875 0zm26.6875 8.0625l0 -5.484375l-9.9375 0l0 -2.578125l10.453125 -14.84375l2.296875 0l0 14.84375l3.09375 0l0 2.578125l-3.09375 0l0 5.484375l-2.8125 0zm0 -8.0625l0 -10.328125l-7.171875 10.328125l7.171875 0zm17.859375 -11.84375l0 -2.703125l14.82811 0l0 2.1875q-2.1875 2.328125 -4.34375 6.1875q-2.140625 3.859375 -3.3125 7.9375q-0.84375 2.875 -1.078125 6.296875l-2.8906097 0q0.046875 -2.703125 1.0624847 -6.53125q1.015625 -3.828125 2.90625 -7.375q1.90625 -3.5625 4.046875 -6.0l-11.218735 0zm26.499985 13.90625l2.953125 -0.25q0.328125 2.15625 1.515625 3.25q1.203125 1.078125 2.890625 1.078125q2.03125 0 3.4375 -1.53125q1.40625 -1.53125 1.40625 -4.0625q0 -2.40625 -1.359375 -3.796875q-1.34375 -1.390625 -3.53125 -1.390625q-1.359375 0 -2.453125 0.625q-1.09375 0.609375 -1.71875 1.59375l-2.640625 -0.34375l2.21875 -11.765625l11.390625 0l0 2.6875l-9.140625 0l-1.234375 6.15625q2.0625 -1.4375 4.328125 -1.4375q3.0 0 5.0625 2.078125q2.0625 2.078125 2.0625 5.34375q0 3.109375 -1.8125 5.375q-2.203125 2.78125 -6.015625 2.78125q-3.125 0 -5.109375 -1.75q-1.96875 -1.75 -2.25 -4.640625zm26.703125 -0.046875l2.8125 -0.375q0.484375 2.390625 1.640625 3.453125q1.171875 1.046875 2.84375 1.046875q1.984375 0 3.34375 -1.375q1.375 -1.375 1.375 -3.40625q0 -1.9375 -1.265625 -3.1875q-1.265625 -1.265625 -3.21875 -1.265625q-0.796875 0 -1.984375 0.3125l0.3125 -2.46875q0.28125 0.03125 0.453125 0.03125q1.796875 0 3.234375 -0.9375q1.4375 -0.9375 1.4375 -2.890625q0 -1.546875 -1.046875 -2.5625q-1.046875 -1.015625 -2.703125 -1.015625q-1.640625 0 -2.734375 1.03125q-1.09375 1.03125 -1.40625 3.09375l-2.8125 -0.5q0.515625 -2.828125 2.34375 -4.375q1.828125 -1.5625 4.546875 -1.5625q1.875 0 3.453125 0.8125q1.578125 0.796875 2.40625 2.1875q0.84375 1.390625 0.84375 2.953125q0 1.484375 -0.796875 2.703125q-0.796875 1.21875 -2.359375 1.9375q2.03125 0.46875 3.15625 1.953125q1.125 1.46875 1.125 3.6875q0 3.0 -2.1875 5.09375q-2.1875 2.078125 -5.53125 2.078125q-3.015625 0 -5.015625 -1.796875q-1.984375 -1.796875 -2.265625 -4.65625zm41.265625 -11.25l-2.796875 0.21875q-0.375 -1.65625 -1.0625 -2.40625q-1.140625 -1.203125 -2.8125 -1.203125q-1.34375 0 -2.359375 0.75q-1.328125 0.96875 -2.09375 2.828125q-0.765625 1.859375 -0.796875 5.296875q1.015625 -1.546875 2.484375 -2.296875q1.46875 -0.75 3.078125 -0.75q2.8125 0 4.78125 2.078125q1.984375 2.0625 1.984375 5.34375q0 2.15625 -0.9375 4.015625q-0.921875 1.84375 -2.546875 2.828125q-1.625 0.984375 -3.6875 0.984375q-3.515625 0 -5.734375 -2.578125q-2.21875 -2.59375 -2.21875 -8.53125q0 -6.640625 2.453125 -9.65625q2.140625 -2.625 5.765625 -2.625q2.703125 0 4.421875 1.515625q1.734375 1.515625 2.078125 4.1875zm-11.484375 9.875q0 1.453125 0.609375 2.78125q0.625 1.328125 1.734375 2.03125q1.109375 0.6875 2.328125 0.6875q1.78125 0 3.0625 -1.4375q1.28125 -1.4375 1.28125 -3.90625q0 -2.375 -1.265625 -3.734375q-1.265625 -1.375 -3.1875 -1.375q-1.90625 0 -3.234375 1.375q-1.328125 1.359375 -1.328125 3.578125zm38.359375 4.71875l0 2.703125l-15.140625 0q-0.03125 -1.015625 0.328125 -1.953125q0.578125 -1.546875 1.84375 -3.046875q1.28125 -1.5 3.6875 -3.46875q3.734375 -3.0625 5.046875 -4.84375q1.3125 -1.796875 1.3125 -3.390625q0 -1.671875 -1.203125 -2.8125q-1.1875 -1.15625 -3.109375 -1.15625q-2.03125 0 -3.25 1.21875q-1.21875 1.21875 -1.234375 3.375l-2.890625 -0.296875q0.296875 -3.234375 2.234375 -4.921875q1.9375 -1.703125 5.203125 -1.703125q3.296875 0 5.21875 1.828125q1.921875 1.828125 1.921875 4.53125q0 1.375 -0.5625 2.703125q-0.5625 1.328125 -1.875 2.796875q-1.296875 1.46875 -4.328125 4.03125q-2.53125 2.125 -3.25 2.890625q-0.71875 0.75 -1.1875 1.515625l11.234375 0zm22.5 2.703125l-2.8125 0l0 -17.921875q-1.015625 0.96875 -2.671875 1.9375q-1.640625 0.96875 -2.953125 1.453125l0 -2.71875q2.359375 -1.109375 4.125 -2.6875q1.765625 -1.578125 2.5 -3.0625l1.8125 0l0 23.0zm16.28125 -19.90625l0 -2.703125l14.828125 0l0 2.1875q-2.1875 2.328125 -4.34375 6.1875q-2.140625 3.859375 -3.3125 7.9375q-0.84375 2.875 -1.078125 6.296875l-2.890625 0q0.046875 -2.703125 1.0625 -6.53125q1.015625 -3.828125 2.90625 -7.375q1.90625 -3.5625 4.046875 -6.0l-11.21875 0zm19.1875 19.90625l0 -3.203125l3.203125 0l0 3.203125l-3.203125 0zm8.890625 0l0 -3.203125l3.203125 0l0 3.203125l-3.203125 0zm8.890625 0l0 -3.203125l3.203125 0l0 3.203125l-3.203125 0z" fill-rule="nonzero"/><path fill="#000000" fill-opacity="0.0" d="m161.2441 241.6063l397.51184 0l0 56.787415l-397.51184 0z" fill-rule="evenodd"/><path fill="#000000" d="m171.57222 270.02942q0 -4.0625 0.828125 -6.53125q0.84375 -2.484375 2.484375 -3.828125q1.65625 -1.34375 4.15625 -1.34375q1.84375 0 3.234375 0.75q1.390625 0.734375 2.296875 2.140625q0.90625 1.390625 1.421875 3.40625q0.515625 2.0 0.515625 5.40625q0 4.03125 -0.828125 6.515625q-0.828125 2.46875 -2.484375 3.828125q-1.640625 1.34375 -4.15625 1.34375q-3.3125 0 -5.203125 -2.375q-2.265625 -2.859375 -2.265625 -9.3125zm2.890625 0q0 5.640625 1.3125 7.515625q1.328125 1.859375 3.265625 1.859375q1.9375 0 3.25 -1.875q1.328125 -1.875 1.328125 -7.5q0 -5.65625 -1.328125 -7.515625q-1.3125 -1.859375 -3.28125 -1.859375q-1.9375 0 -3.09375 1.640625q-1.453125 2.09375 -1.453125 7.734375zm16.484375 11.296875l0 -3.203125l3.203125 0l0 3.203125l-3.203125 0zm17.90625 0l-2.8125 0l0 -17.921875q-1.015625 0.96875 -2.671875 1.9375q-1.640625 0.96875 -2.953125 1.453125l0 -2.71875q2.359375 -1.109375 4.125 -2.6875q1.765625 -1.578125 2.5 -3.0625l1.8125 0l0 23.0zm16.09375 -6.0l2.953125 -0.25q0.328125 2.15625 1.515625 3.25q1.203125 1.078125 2.890625 1.078125q2.03125 0 3.4375 -1.53125q1.40625 -1.53125 1.40625 -4.0625q0 -2.40625 -1.359375 -3.796875q-1.34375 -1.390625 -3.53125 -1.390625q-1.359375 0 -2.453125 0.625q-1.09375 0.609375 -1.71875 1.59375l-2.640625 -0.34375l2.21875 -11.765625l11.390625 0l0 2.6875l-9.140625 0l-1.234375 6.15625q2.0625 -1.4375 4.328125 -1.4375q3.0 0 5.0625 2.078125q2.0625 2.078125 2.0625 5.34375q0 3.109375 -1.8125 5.375q-2.203125 2.78125 -6.015625 2.78125q-3.125 0 -5.109375 -1.75q-1.96875 -1.75 -2.25 -4.640625zm26.875 -13.90625l0 -2.703125l14.82811 0l0 2.1875q-2.1875 2.328125 -4.34375 6.1875q-2.140625 3.859375 -3.3125 7.9375q-0.84375 2.875 -1.078125 6.296875l-2.8906097 0q0.046875 -2.703125 1.0624847 -6.53125q1.015625 -3.828125 2.90625 -7.375q1.90625 -3.5625 4.046875 -6.0l-11.218735 0zm30.82811 7.484375q-1.75 -0.640625 -2.59375 -1.828125q-0.84375 -1.1875 -0.84375 -2.84375q0 -2.5 1.796875 -4.203125q1.796875 -1.703125 4.78125 -1.703125q3.0 0 4.828125 1.75q1.828125 1.734375 1.828125 4.234375q0 1.59375 -0.84375 2.78125q-0.828125 1.171875 -2.53125 1.8125q2.109375 0.6875 3.203125 2.21875q1.109375 1.53125 1.109375 3.65625q0 2.9375 -2.078125 4.9375q-2.078125 2.0 -5.46875 2.0q-3.390625 0 -5.46875 -2.0q-2.078125 -2.015625 -2.078125 -5.015625q0 -2.234375 1.125 -3.734375q1.140625 -1.515625 3.234375 -2.0625zm-0.5625 -4.765625q0 1.625 1.046875 2.65625q1.046875 1.03125 2.71875 1.03125q1.625 0 2.65625 -1.015625q1.046875 -1.03125 1.046875 -2.515625q0 -1.546875 -1.078125 -2.59375q-1.0625 -1.0625 -2.65625 -1.0625q-1.609375 0 -2.671875 1.03125q-1.0625 1.03125 -1.0625 2.46875zm-0.90625 10.578125q0 1.203125 0.5625 2.328125q0.578125 1.125 1.703125 1.75q1.125 0.609375 2.421875 0.609375q2.015625 0 3.328125 -1.296875q1.3125 -1.296875 1.3125 -3.296875q0 -2.03125 -1.359375 -3.359375q-1.34375 -1.328125 -3.375 -1.328125q-1.984375 0 -3.296875 1.3125q-1.296875 1.3125 -1.296875 3.28125zm24.25 1.3125l2.703125 -0.25q0.34375 1.90625 1.3125 2.765625q0.96875 0.859375 2.484375 0.859375q1.296875 0 2.265625 -0.59375q0.984375 -0.59375 1.609375 -1.578125q0.625 -1.0 1.046875 -2.6875q0.421875 -1.6875 0.421875 -3.4375q0 -0.1875 -0.015625 -0.5625q-0.84375 1.34375 -2.3125 2.1875q-1.453125 0.828125 -3.15625 0.828125q-2.84375 0 -4.8125 -2.0625q-1.96875 -2.0625 -1.96875 -5.4375q0 -3.484375 2.046875 -5.609375q2.0625 -2.125 5.15625 -2.125q2.234375 0 4.078125 1.203125q1.859375 1.203125 2.8125 3.4375q0.96875 2.21875 0.96875 6.4375q0 4.390625 -0.953125 7.0q-0.953125 2.59375 -2.84375 3.953125q-1.875 1.359375 -4.40625 1.359375q-2.6875 0 -4.390625 -1.484375q-1.703125 -1.5 -2.046875 -4.203125zm11.515625 -10.109375q0 -2.421875 -1.296875 -3.84375q-1.28125 -1.421875 -3.09375 -1.421875q-1.875 0 -3.265625 1.53125q-1.390625 1.53125 -1.390625 3.96875q0 2.1875 1.3125 3.5625q1.328125 1.359375 3.265625 1.359375q1.953125 0 3.203125 -1.359375q1.265625 -1.375 1.265625 -3.796875zm15.171875 10.109375l2.703125 -0.25q0.34375 1.90625 1.3125 2.765625q0.96875 0.859375 2.484375 0.859375q1.296875 0 2.265625 -0.59375q0.984375 -0.59375 1.609375 -1.578125q0.625 -1.0 1.046875 -2.6875q0.421875 -1.6875 0.421875 -3.4375q0 -0.1875 -0.015625 -0.5625q-0.84375 1.34375 -2.3125 2.1875q-1.453125 0.828125 -3.15625 0.828125q-2.84375 0 -4.8125 -2.0625q-1.96875 -2.0625 -1.96875 -5.4375q0 -3.484375 2.046875 -5.609375q2.0625 -2.125 5.15625 -2.125q2.234375 0 4.078125 1.203125q1.859375 1.203125 2.8125 3.4375q0.96875 2.21875 0.96875 6.4375q0 4.390625 -0.953125 7.0q-0.953125 2.59375 -2.84375 3.953125q-1.875 1.359375 -4.40625 1.359375q-2.6875 0 -4.390625 -1.484375q-1.703125 -1.5 -2.046875 -4.203125zm11.515625 -10.109375q0 -2.421875 -1.296875 -3.84375q-1.28125 -1.421875 -3.09375 -1.421875q-1.875 0 -3.265625 1.53125q-1.390625 1.53125 -1.390625 3.96875q0 2.1875 1.3125 3.5625q1.328125 1.359375 3.265625 1.359375q1.953125 0 3.203125 -1.359375q1.265625 -1.375 1.265625 -3.796875zm25.34375 15.40625l-2.8125 0l0 -17.921875q-1.015625 0.96875 -2.671875 1.9375q-1.640625 0.96875 -2.953125 1.453125l0 -2.71875q2.359375 -1.109375 4.125 -2.6875q1.765625 -1.578125 2.5 -3.0625l1.8125 0l0 23.0zm16.109375 -6.046875l2.8125 -0.375q0.484375 2.390625 1.640625 3.453125q1.171875 1.046875 2.84375 1.046875q1.984375 0 3.34375 -1.375q1.375 -1.375 1.375 -3.40625q0 -1.9375 -1.265625 -3.1875q-1.265625 -1.265625 -3.21875 -1.265625q-0.796875 0 -1.984375 0.3125l0.3125 -2.46875q0.28125 0.03125 0.453125 0.03125q1.796875 0 3.234375 -0.9375q1.4375 -0.9375 1.4375 -2.890625q0 -1.546875 -1.046875 -2.5625q-1.046875 -1.015625 -2.703125 -1.015625q-1.640625 0 -2.734375 1.03125q-1.09375 1.03125 -1.40625 3.09375l-2.8125 -0.5q0.515625 -2.828125 2.34375 -4.375q1.828125 -1.5625 4.546875 -1.5625q1.875 0 3.453125 0.8125q1.578125 0.796875 2.40625 2.1875q0.84375 1.390625 0.84375 2.953125q0 1.484375 -0.796875 2.703125q-0.796875 1.21875 -2.359375 1.9375q2.03125 0.46875 3.15625 1.953125q1.125 1.46875 1.125 3.6875q0 3.0 -2.1875 5.09375q-2.1875 2.078125 -5.53125 2.078125q-3.015625 0 -5.015625 -1.796875q-1.984375 -1.796875 -2.265625 -4.65625zm35.6875 6.046875l0 -5.484375l-9.9375 0l0 -2.578125l10.453125 -14.84375l2.296875 0l0 14.84375l3.09375 0l0 2.578125l-3.09375 0l0 5.484375l-2.8125 0zm0 -8.0625l0 -10.328125l-7.171875 10.328125l7.171875 0zm10.359375 8.0625l0 -3.203125l3.203125 0l0 3.203125l-3.203125 0zm8.890625 0l0 -3.203125l3.203125 0l0 3.203125l-3.203125 0zm8.890625 0l0 -3.203125l3.203125 0l0 3.203125l-3.203125 0z" fill-rule="nonzero"/><path fill="#000000" fill-opacity="0.0" d="m161.2441 134.47507l397.51184 0l0 56.7874l-397.51184 0z" fill-rule="evenodd"/><path fill="#000000" d="m171.57222 162.8982q0 -4.0625 0.828125 -6.53125q0.84375 -2.484375 2.484375 -3.828125q1.65625 -1.34375 4.15625 -1.34375q1.84375 0 3.234375 0.75q1.390625 0.734375 2.296875 2.140625q0.90625 1.390625 1.421875 3.40625q0.515625 2.0 0.515625 5.40625q0 4.03125 -0.828125 6.515625q-0.828125 2.46875 -2.484375 3.828125q-1.640625 1.34375 -4.15625 1.34375q-3.3125 0 -5.203125 -2.375q-2.265625 -2.859375 -2.265625 -9.3125zm2.890625 0q0 5.640625 1.3125 7.515625q1.328125 1.859375 3.265625 1.859375q1.9375 0 3.25 -1.875q1.328125 -1.875 1.328125 -7.5q0 -5.65625 -1.328125 -7.515625q-1.3125 -1.859375 -3.28125 -1.859375q-1.9375 0 -3.09375 1.640625q-1.453125 2.09375 -1.453125 7.734375zm16.484375 11.296875l0 -3.203125l3.203125 0l0 3.203125l-3.203125 0zm16.328125 0l0 -5.484375l-9.9375 0l0 -2.578125l10.453125 -14.84375l2.296875 0l0 14.84375l3.09375 0l0 2.578125l-3.09375 0l0 5.484375l-2.8125 0zm0 -8.0625l0 -10.328125l-7.171875 10.328125l7.171875 0zm17.859375 -11.84375l0 -2.703125l14.828125 0l0 2.1875q-2.1875 2.328125 -4.34375 6.1875q-2.140625 3.859375 -3.3125 7.9375q-0.84375 2.875 -1.078125 6.296875l-2.890625 0q0.046875 -2.703125 1.0625 -6.53125q1.015625 -3.828125 2.90625 -7.375q1.90625 -3.5625 4.046875 -6.0l-11.21875 0zm26.515625 13.859375l2.8125 -0.375q0.484375 2.390625 1.6406097 3.453125q1.171875 1.046875 2.84375 1.046875q1.984375 0 3.34375 -1.375q1.375 -1.375 1.375 -3.40625q0 -1.9375 -1.265625 -3.1875q-1.265625 -1.265625 -3.21875 -1.265625q-0.796875 0 -1.984375 0.3125l0.3125 -2.46875q0.28125 0.03125 0.453125 0.03125q1.796875 0 3.234375 -0.9375q1.4375 -0.9375 1.4375 -2.890625q0 -1.546875 -1.046875 -2.5625q-1.046875 -1.015625 -2.703125 -1.015625q-1.640625 0 -2.734375 1.03125q-1.0937347 1.03125 -1.4062347 3.09375l-2.8125 -0.5q0.515625 -2.828125 2.34375 -4.375q1.8281097 -1.5625 4.5468597 -1.5625q1.875 0 3.453125 0.8125q1.578125 0.796875 2.40625 2.1875q0.84375 1.390625 0.84375 2.953125q0 1.484375 -0.796875 2.703125q-0.796875 1.21875 -2.359375 1.9375q2.03125 0.46875 3.15625 1.953125q1.125 1.46875 1.125 3.6875q0 3.0 -2.1875 5.09375q-2.1875 2.078125 -5.53125 2.078125q-3.0156097 0 -5.0156097 -1.796875q-1.984375 -1.796875 -2.265625 -4.65625zm26.67186 0.046875l2.953125 -0.25q0.328125 2.15625 1.515625 3.25q1.203125 1.078125 2.890625 1.078125q2.03125 0 3.4375 -1.53125q1.40625 -1.53125 1.40625 -4.0625q0 -2.40625 -1.359375 -3.796875q-1.34375 -1.390625 -3.53125 -1.390625q-1.359375 0 -2.453125 0.625q-1.09375 0.609375 -1.71875 1.59375l-2.640625 -0.34375l2.21875 -11.765625l11.390625 0l0 2.6875l-9.140625 0l-1.234375 6.15625q2.0625 -1.4375 4.328125 -1.4375q3.0 0 5.0625 2.078125q2.0625 2.078125 2.0625 5.34375q0 3.109375 -1.8125 5.375q-2.203125 2.78125 -6.015625 2.78125q-3.125 0 -5.109375 -1.75q-1.96875 -1.75 -2.25 -4.640625zm26.6875 0l2.953125 -0.25q0.328125 2.15625 1.515625 3.25q1.203125 1.078125 2.890625 1.078125q2.03125 0 3.4375 -1.53125q1.40625 -1.53125 1.40625 -4.0625q0 -2.40625 -1.359375 -3.796875q-1.34375 -1.390625 -3.53125 -1.390625q-1.359375 0 -2.453125 0.625q-1.09375 0.609375 -1.71875 1.59375l-2.640625 -0.34375l2.21875 -11.765625l11.390625 0l0 2.6875l-9.140625 0l-1.234375 6.15625q2.0625 -1.4375 4.328125 -1.4375q3.0 0 5.0625 2.078125q2.0625 2.078125 2.0625 5.34375q0 3.109375 -1.8125 5.375q-2.203125 2.78125 -6.015625 2.78125q-3.125 0 -5.109375 -1.75q-1.96875 -1.75 -2.25 -4.640625zm26.875 -13.90625l0 -2.703125l14.828125 0l0 2.1875q-2.1875 2.328125 -4.34375 6.1875q-2.140625 3.859375 -3.3125 7.9375q-0.84375 2.875 -1.078125 6.296875l-2.890625 0q0.046875 -2.703125 1.0625 -6.53125q1.015625 -3.828125 2.90625 -7.375q1.90625 -3.5625 4.046875 -6.0l-11.21875 0zm41.09375 2.609375l-2.796875 0.21875q-0.375 -1.65625 -1.0625 -2.40625q-1.140625 -1.203125 -2.8125 -1.203125q-1.34375 0 -2.359375 0.75q-1.328125 0.96875 -2.09375 2.828125q-0.765625 1.859375 -0.796875 5.296875q1.015625 -1.546875 2.484375 -2.296875q1.46875 -0.75 3.078125 -0.75q2.8125 0 4.78125 2.078125q1.984375 2.0625 1.984375 5.34375q0 2.15625 -0.9375 4.015625q-0.921875 1.84375 -2.546875 2.828125q-1.625 0.984375 -3.6875 0.984375q-3.515625 0 -5.734375 -2.578125q-2.21875 -2.59375 -2.21875 -8.53125q0 -6.640625 2.453125 -9.65625q2.140625 -2.625 5.765625 -2.625q2.703125 0 4.421875 1.515625q1.734375 1.515625 2.078125 4.1875zm-11.484375 9.875q0 1.453125 0.609375 2.78125q0.625 1.328125 1.734375 2.03125q1.109375 0.6875 2.328125 0.6875q1.78125 0 3.0625 -1.4375q1.28125 -1.4375 1.28125 -3.90625q0 -2.375 -1.265625 -3.734375q-1.265625 -1.375 -3.1875 -1.375q-1.90625 0 -3.234375 1.375q-1.328125 1.359375 -1.328125 3.578125zm23.578125 -3.875q0 -4.0625 0.828125 -6.53125q0.84375 -2.484375 2.484375 -3.828125q1.65625 -1.34375 4.15625 -1.34375q1.84375 0 3.234375 0.75q1.390625 0.734375 2.296875 2.140625q0.90625 1.390625 1.421875 3.40625q0.515625 2.0 0.515625 5.40625q0 4.03125 -0.828125 6.515625q-0.828125 2.46875 -2.484375 3.828125q-1.640625 1.34375 -4.15625 1.34375q-3.3125 0 -5.203125 -2.375q-2.265625 -2.859375 -2.265625 -9.3125zm2.890625 0q0 5.640625 1.3125 7.515625q1.328125 1.859375 3.265625 1.859375q1.9375 0 3.25 -1.875q1.328125 -1.875 1.328125 -7.5q0 -5.65625 -1.328125 -7.515625q-1.3125 -1.859375 -3.28125 -1.859375q-1.9375 0 -3.09375 1.640625q-1.453125 2.09375 -1.453125 7.734375zm38.578125 8.59375l0 2.703125l-15.140625 0q-0.03125 -1.015625 0.328125 -1.953125q0.578125 -1.546875 1.84375 -3.046875q1.28125 -1.5 3.6875 -3.46875q3.734375 -3.0625 5.046875 -4.84375q1.3125 -1.796875 1.3125 -3.390625q0 -1.671875 -1.203125 -2.8125q-1.1875 -1.15625 -3.109375 -1.15625q-2.03125 0 -3.25 1.21875q-1.21875 1.21875 -1.234375 3.375l-2.890625 -0.296875q0.296875 -3.234375 2.234375 -4.921875q1.9375 -1.703125 5.203125 -1.703125q3.296875 0 5.21875 1.828125q1.921875 1.828125 1.921875 4.53125q0 1.375 -0.5625 2.703125q-0.5625 1.328125 -1.875 2.796875q-1.296875 1.46875 -4.328125 4.03125q-2.53125 2.125 -3.25 2.890625q-0.71875 0.75 -1.1875 1.515625l11.234375 0zm4.59375 2.703125l0 -3.203125l3.203125 0l0 3.203125l-3.203125 0zm8.890625 0l0 -3.203125l3.203125 0l0 3.203125l-3.203125 0zm8.890625 0l0 -3.203125l3.203125 0l0 3.203125l-3.203125 0z" fill-rule="nonzero"/><path fill="#000000" fill-opacity="0.0" d="m161.2441 293.72964l397.51184 0l0 56.787415l-397.51184 0z" fill-rule="evenodd"/><path fill="#000000" d="m171.57222 322.15277q0 -4.0625 0.828125 -6.53125q0.84375 -2.484375 2.484375 -3.828125q1.65625 -1.34375 4.15625 -1.34375q1.84375 0 3.234375 0.75q1.390625 0.734375 2.296875 2.140625q0.90625 1.390625 1.421875 3.40625q0.515625 2.0 0.515625 5.40625q0 4.03125 -0.828125 6.515625q-0.828125 2.46875 -2.484375 3.828125q-1.640625 1.34375 -4.15625 1.34375q-3.3125 0 -5.203125 -2.375q-2.265625 -2.859375 -2.265625 -9.3125zm2.890625 0q0 5.640625 1.3125 7.515625q1.328125 1.859375 3.265625 1.859375q1.9375 0 3.25 -1.875q1.328125 -1.875 1.328125 -7.5q0 -5.65625 -1.328125 -7.515625q-1.3125 -1.859375 -3.28125 -1.859375q-1.9375 0 -3.09375 1.640625q-1.453125 2.09375 -1.453125 7.734375zm16.484375 11.296875l0 -3.203125l3.203125 0l0 3.203125l-3.203125 0zm11.640625 -12.421875q-1.75 -0.640625 -2.59375 -1.828125q-0.84375 -1.1875 -0.84375 -2.84375q0 -2.5 1.796875 -4.203125q1.796875 -1.703125 4.78125 -1.703125q3.0 0 4.828125 1.75q1.828125 1.734375 1.828125 4.234375q0 1.59375 -0.84375 2.78125q-0.828125 1.171875 -2.53125 1.8125q2.109375 0.6875 3.203125 2.21875q1.109375 1.53125 1.109375 3.65625q0 2.9375 -2.078125 4.9375q-2.078125 2.0 -5.46875 2.0q-3.390625 0 -5.46875 -2.0q-2.078125 -2.015625 -2.078125 -5.015625q0 -2.234375 1.125 -3.734375q1.140625 -1.515625 3.234375 -2.0625zm-0.5625 -4.765625q0 1.625 1.046875 2.65625q1.046875 1.03125 2.71875 1.03125q1.625 0 2.65625 -1.015625q1.046875 -1.03125 1.046875 -2.515625q0 -1.546875 -1.078125 -2.59375q-1.0625 -1.0625 -2.65625 -1.0625q-1.609375 0 -2.671875 1.03125q-1.0625 1.03125 -1.0625 2.46875zm-0.90625 10.578125q0 1.203125 0.5625 2.328125q0.578125 1.125 1.703125 1.75q1.125 0.609375 2.421875 0.609375q2.015625 0 3.328125 -1.296875q1.3125 -1.296875 1.3125 -3.296875q0 -2.03125 -1.359375 -3.359375q-1.34375 -1.328125 -3.375 -1.328125q-1.984375 0 -3.296875 1.3125q-1.296875 1.3125 -1.296875 3.28125zm38.421875 -10.6875l-2.796875 0.21875q-0.375 -1.65625 -1.0625 -2.40625q-1.140625 -1.203125 -2.8125 -1.203125q-1.34375 0 -2.359375 0.75q-1.328125 0.96875 -2.09375 2.828125q-0.765625 1.859375 -0.796875 5.296875q1.015625 -1.546875 2.484375 -2.296875q1.46875 -0.75 3.078125 -0.75q2.8125 0 4.78125 2.078125q1.984375 2.0625 1.984375 5.34375q0 2.15625 -0.9375 4.015625q-0.921875 1.84375 -2.546875 2.828125q-1.625 0.984375 -3.6875 0.984375q-3.515625 0 -5.734375 -2.578125q-2.21875 -2.59375 -2.21875 -8.53125q0 -6.640625 2.453125 -9.65625q2.140625 -2.625 5.765625 -2.625q2.703125 0 4.421875 1.515625q1.734375 1.515625 2.078125 4.1875zm-11.484375 9.875q0 1.453125 0.609375 2.78125q0.625 1.328125 1.734375 2.03125q1.109375 0.6875 2.328125 0.6875q1.78125 0 3.0625 -1.4375q1.28125 -1.4375 1.28125 -3.90625q0 -2.375 -1.265625 -3.734375q-1.265625 -1.375 -3.1875 -1.375q-1.90625 0 -3.234375 1.375q-1.328125 1.359375 -1.328125 3.578125zm23.765625 -12.484375l0 -2.703125l14.82811 0l0 2.1875q-2.1875 2.328125 -4.34375 6.1875q-2.140625 3.859375 -3.3125 7.9375q-0.84375 2.875 -1.078125 6.296875l-2.8906097 0q0.046875 -2.703125 1.0624847 -6.53125q1.015625 -3.828125 2.90625 -7.375q1.90625 -3.5625 4.046875 -6.0l-11.218735 0zm41.093735 2.609375l-2.796875 0.21875q-0.375 -1.65625 -1.0625 -2.40625q-1.140625 -1.203125 -2.8125 -1.203125q-1.34375 0 -2.359375 0.75q-1.328125 0.96875 -2.09375 2.828125q-0.765625 1.859375 -0.796875 5.296875q1.015625 -1.546875 2.484375 -2.296875q1.46875 -0.75 3.078125 -0.75q2.8125 0 4.78125 2.078125q1.984375 2.0625 1.984375 5.34375q0 2.15625 -0.9375 4.015625q-0.921875 1.84375 -2.546875 2.828125q-1.625 0.984375 -3.6875 0.984375q-3.515625 0 -5.734375 -2.578125q-2.21875 -2.59375 -2.21875 -8.53125q0 -6.640625 2.453125 -9.65625q2.140625 -2.625 5.765625 -2.625q2.703125 0 4.421875 1.515625q1.734375 1.515625 2.078125 4.1875zm-11.484375 9.875q0 1.453125 0.609375 2.78125q0.625 1.328125 1.734375 2.03125q1.109375 0.6875 2.328125 0.6875q1.78125 0 3.0625 -1.4375q1.28125 -1.4375 1.28125 -3.90625q0 -2.375 -1.265625 -3.734375q-1.265625 -1.375 -3.1875 -1.375q-1.90625 0 -3.234375 1.375q-1.328125 1.359375 -1.328125 3.578125zm24.0 2.125l2.703125 -0.25q0.34375 1.90625 1.3125 2.765625q0.96875 0.859375 2.484375 0.859375q1.296875 0 2.265625 -0.59375q0.984375 -0.59375 1.609375 -1.578125q0.625 -1.0 1.046875 -2.6875q0.421875 -1.6875 0.421875 -3.4375q0 -0.1875 -0.015625 -0.5625q-0.84375 1.34375 -2.3125 2.1875q-1.453125 0.828125 -3.15625 0.828125q-2.84375 0 -4.8125 -2.0625q-1.96875 -2.0625 -1.96875 -5.4375q0 -3.484375 2.046875 -5.609375q2.0625 -2.125 5.15625 -2.125q2.234375 0 4.078125 1.203125q1.859375 1.203125 2.8125 3.4375q0.96875 2.21875 0.96875 6.4375q0 4.390625 -0.953125 7.0q-0.953125 2.59375 -2.84375 3.953125q-1.875 1.359375 -4.40625 1.359375q-2.6875 0 -4.390625 -1.484375q-1.703125 -1.5 -2.046875 -4.203125zm11.515625 -10.109375q0 -2.421875 -1.296875 -3.84375q-1.28125 -1.421875 -3.09375 -1.421875q-1.875 0 -3.265625 1.53125q-1.390625 1.53125 -1.390625 3.96875q0 2.1875 1.3125 3.5625q1.328125 1.359375 3.265625 1.359375q1.953125 0 3.203125 -1.359375q1.265625 -1.375 1.265625 -3.796875zm14.765625 9.359375l2.8125 -0.375q0.484375 2.390625 1.640625 3.453125q1.171875 1.046875 2.84375 1.046875q1.984375 0 3.34375 -1.375q1.375 -1.375 1.375 -3.40625q0 -1.9375 -1.265625 -3.1875q-1.265625 -1.265625 -3.21875 -1.265625q-0.796875 0 -1.984375 0.3125l0.3125 -2.46875q0.28125 0.03125 0.453125 0.03125q1.796875 0 3.234375 -0.9375q1.4375 -0.9375 1.4375 -2.890625q0 -1.546875 -1.046875 -2.5625q-1.046875 -1.015625 -2.703125 -1.015625q-1.640625 0 -2.734375 1.03125q-1.09375 1.03125 -1.40625 3.09375l-2.8125 -0.5q0.515625 -2.828125 2.34375 -4.375q1.828125 -1.5625 4.546875 -1.5625q1.875 0 3.453125 0.8125q1.578125 0.796875 2.40625 2.1875q0.84375 1.390625 0.84375 2.953125q0 1.484375 -0.796875 2.703125q-0.796875 1.21875 -2.359375 1.9375q2.03125 0.46875 3.15625 1.953125q1.125 1.46875 1.125 3.6875q0 3.0 -2.1875 5.09375q-2.1875 2.078125 -5.53125 2.078125q-3.015625 0 -5.015625 -1.796875q-1.984375 -1.796875 -2.265625 -4.65625zm26.6875 0l2.8125 -0.375q0.484375 2.390625 1.640625 3.453125q1.171875 1.046875 2.84375 1.046875q1.984375 0 3.34375 -1.375q1.375 -1.375 1.375 -3.40625q0 -1.9375 -1.265625 -3.1875q-1.265625 -1.265625 -3.21875 -1.265625q-0.796875 0 -1.984375 0.3125l0.3125 -2.46875q0.28125 0.03125 0.453125 0.03125q1.796875 0 3.234375 -0.9375q1.4375 -0.9375 1.4375 -2.890625q0 -1.546875 -1.046875 -2.5625q-1.046875 -1.015625 -2.703125 -1.015625q-1.640625 0 -2.734375 1.03125q-1.09375 1.03125 -1.40625 3.09375l-2.8125 -0.5q0.515625 -2.828125 2.34375 -4.375q1.828125 -1.5625 4.546875 -1.5625q1.875 0 3.453125 0.8125q1.578125 0.796875 2.40625 2.1875q0.84375 1.390625 0.84375 2.953125q0 1.484375 -0.796875 2.703125q-0.796875 1.21875 -2.359375 1.9375q2.03125 0.46875 3.15625 1.953125q1.125 1.46875 1.125 3.6875q0 3.0 -2.1875 5.09375q-2.1875 2.078125 -5.53125 2.078125q-3.015625 0 -5.015625 -1.796875q-1.984375 -1.796875 -2.265625 -4.65625zm26.671875 0.046875l2.953125 -0.25q0.328125 2.15625 1.515625 3.25q1.203125 1.078125 2.890625 1.078125q2.03125 0 3.4375 -1.53125q1.40625 -1.53125 1.40625 -4.0625q0 -2.40625 -1.359375 -3.796875q-1.34375 -1.390625 -3.53125 -1.390625q-1.359375 0 -2.453125 0.625q-1.09375 0.609375 -1.71875 1.59375l-2.640625 -0.34375l2.21875 -11.765625l11.390625 0l0 2.6875l-9.140625 0l-1.234375 6.15625q2.0625 -1.4375 4.328125 -1.4375q3.0 0 5.0625 2.078125q2.0625 2.078125 2.0625 5.34375q0 3.109375 -1.8125 5.375q-2.203125 2.78125 -6.015625 2.78125q-3.125 0 -5.109375 -1.75q-1.96875 -1.75 -2.25 -4.640625zm26.6875 -5.296875q0 -4.0625 0.828125 -6.53125q0.84375 -2.484375 2.484375 -3.828125q1.65625 -1.34375 4.15625 -1.34375q1.84375 0 3.234375 0.75q1.390625 0.734375 2.296875 2.140625q0.90625 1.390625 1.421875 3.40625q0.515625 2.0 0.515625 5.40625q0 4.03125 -0.828125 6.515625q-0.828125 2.46875 -2.484375 3.828125q-1.640625 1.34375 -4.15625 1.34375q-3.3125 0 -5.203125 -2.375q-2.265625 -2.859375 -2.265625 -9.3125zm2.890625 0q0 5.640625 1.3125 7.515625q1.328125 1.859375 3.265625 1.859375q1.9375 0 3.25 -1.875q1.328125 -1.875 1.328125 -7.5q0 -5.65625 -1.328125 -7.515625q-1.3125 -1.859375 -3.28125 -1.859375q-1.9375 0 -3.09375 1.640625q-1.453125 2.09375 -1.453125 7.734375zm16.484375 11.296875l0 -3.203125l3.203125 0l0 3.203125l-3.203125 0zm8.890625 0l0 -3.203125l3.203125 0l0 3.203125l-3.203125 0zm8.890625 0l0 -3.203125l3.203125 0l0 3.203125l-3.203125 0z" fill-rule="nonzero"/><path fill="#000000" fill-opacity="0.0" d="m161.2441 187.6483l397.51184 0l0 56.7874l-397.51184 0z" fill-rule="evenodd"/><path fill="#000000" d="m171.57222 216.07143q0 -4.0625 0.828125 -6.53125q0.84375 -2.484375 2.484375 -3.828125q1.65625 -1.34375 4.15625 -1.34375q1.84375 0 3.234375 0.75q1.390625 0.734375 2.296875 2.140625q0.90625 1.390625 1.421875 3.40625q0.515625 2.0 0.515625 5.40625q0 4.03125 -0.828125 6.515625q-0.828125 2.46875 -2.484375 3.828125q-1.640625 1.34375 -4.15625 1.34375q-3.3125 0 -5.203125 -2.375q-2.265625 -2.859375 -2.265625 -9.3125zm2.890625 0q0 5.640625 1.3125 7.515625q1.328125 1.859375 3.265625 1.859375q1.9375 0 3.25 -1.875q1.328125 -1.875 1.328125 -7.5q0 -5.65625 -1.328125 -7.515625q-1.3125 -1.859375 -3.28125 -1.859375q-1.9375 0 -3.09375 1.640625q-1.453125 2.09375 -1.453125 7.734375zm16.484375 11.296875l0 -3.203125l3.203125 0l0 3.203125l-3.203125 0zm7.3125 -11.296875q0 -4.0625 0.828125 -6.53125q0.84375 -2.484375 2.484375 -3.828125q1.65625 -1.34375 4.15625 -1.34375q1.84375 0 3.234375 0.75q1.390625 0.734375 2.296875 2.140625q0.90625 1.390625 1.421875 3.40625q0.515625 2.0 0.515625 5.40625q0 4.03125 -0.828125 6.515625q-0.828125 2.46875 -2.484375 3.828125q-1.640625 1.34375 -4.15625 1.34375q-3.3125 0 -5.203125 -2.375q-2.265625 -2.859375 -2.265625 -9.3125zm2.890625 0q0 5.640625 1.3125 7.515625q1.328125 1.859375 3.265625 1.859375q1.9375 0 3.25 -1.875q1.328125 -1.875 1.328125 -7.5q0 -5.65625 -1.328125 -7.515625q-1.3125 -1.859375 -3.28125 -1.859375q-1.9375 0 -3.09375 1.640625q-1.453125 2.09375 -1.453125 7.734375zm38.390625 -6.0l-2.796875 0.21875q-0.375 -1.65625 -1.0625 -2.40625q-1.140625 -1.203125 -2.8125 -1.203125q-1.34375 0 -2.359375 0.75q-1.328125 0.96875 -2.09375 2.828125q-0.765625 1.859375 -0.796875 5.296875q1.015625 -1.546875 2.484375 -2.296875q1.46875 -0.75 3.078125 -0.75q2.8125 0 4.78125 2.078125q1.984375 2.0625 1.984375 5.34375q0 2.15625 -0.9375 4.015625q-0.921875 1.84375 -2.546875 2.828125q-1.625 0.984375 -3.6875 0.984375q-3.515625 0 -5.734375 -2.578125q-2.21875 -2.59375 -2.21875 -8.53125q0 -6.640625 2.453125 -9.65625q2.140625 -2.625 5.765625 -2.625q2.703125 0 4.421875 1.515625q1.734375 1.515625 2.078125 4.1875zm-11.484375 9.875q0 1.453125 0.609375 2.78125q0.625 1.328125 1.734375 2.03125q1.109375 0.6875 2.328125 0.6875q1.78125 0 3.0625 -1.4375q1.28125 -1.4375 1.28125 -3.90625q0 -2.375 -1.265625 -3.734375q-1.265625 -1.375 -3.1875 -1.375q-1.90625 0 -3.234375 1.375q-1.328125 1.359375 -1.328125 3.578125zm38.17186 -9.875l-2.796875 0.21875q-0.375 -1.65625 -1.0625 -2.40625q-1.140625 -1.203125 -2.8125 -1.203125q-1.34375 0 -2.359375 0.75q-1.3281097 0.96875 -2.0937347 2.828125q-0.765625 1.859375 -0.796875 5.296875q1.015625 -1.546875 2.4843597 -2.296875q1.46875 -0.75 3.078125 -0.75q2.8125 0 4.78125 2.078125q1.984375 2.0625 1.984375 5.34375q0 2.15625 -0.9375 4.015625q-0.921875 1.84375 -2.546875 2.828125q-1.625 0.984375 -3.6875 0.984375q-3.5156097 0 -5.7343597 -2.578125q-2.21875 -2.59375 -2.21875 -8.53125q0 -6.640625 2.453125 -9.65625q2.1406097 -2.625 5.7656097 -2.625q2.703125 0 4.421875 1.515625q1.734375 1.515625 2.078125 4.1875zm-11.48436 9.875q0 1.453125 0.609375 2.78125q0.625 1.328125 1.7343597 2.03125q1.109375 0.6875 2.328125 0.6875q1.78125 0 3.0625 -1.4375q1.28125 -1.4375 1.28125 -3.90625q0 -2.375 -1.265625 -3.734375q-1.265625 -1.375 -3.1875 -1.375q-1.90625 0 -3.234375 1.375q-1.3281097 1.359375 -1.3281097 3.578125zm32.593735 7.421875l0 -5.484375l-9.9375 0l0 -2.578125l10.453125 -14.84375l2.296875 0l0 14.84375l3.09375 0l0 2.578125l-3.09375 0l0 5.484375l-2.8125 0zm0 -8.0625l0 -10.328125l-7.171875 10.328125l7.171875 0zm32.453125 5.359375l0 2.703125l-15.140625 0q-0.03125 -1.015625 0.328125 -1.953125q0.578125 -1.546875 1.84375 -3.046875q1.28125 -1.5 3.6875 -3.46875q3.734375 -3.0625 5.046875 -4.84375q1.3125 -1.796875 1.3125 -3.390625q0 -1.671875 -1.203125 -2.8125q-1.1875 -1.15625 -3.109375 -1.15625q-2.03125 0 -3.25 1.21875q-1.21875 1.21875 -1.234375 3.375l-2.890625 -0.296875q0.296875 -3.234375 2.234375 -4.921875q1.9375 -1.703125 5.203125 -1.703125q3.296875 0 5.21875 1.828125q1.921875 1.828125 1.921875 4.53125q0 1.375 -0.5625 2.703125q-0.5625 1.328125 -1.875 2.796875q-1.296875 1.46875 -4.328125 4.03125q-2.53125 2.125 -3.25 2.890625q-0.71875 0.75 -1.1875 1.515625l11.234375 0zm11.90625 -3.296875l2.953125 -0.25q0.328125 2.15625 1.515625 3.25q1.203125 1.078125 2.890625 1.078125q2.03125 0 3.4375 -1.53125q1.40625 -1.53125 1.40625 -4.0625q0 -2.40625 -1.359375 -3.796875q-1.34375 -1.390625 -3.53125 -1.390625q-1.359375 0 -2.453125 0.625q-1.09375 0.609375 -1.71875 1.59375l-2.640625 -0.34375l2.21875 -11.765625l11.390625 0l0 2.6875l-9.140625 0l-1.234375 6.15625q2.0625 -1.4375 4.328125 -1.4375q3.0 0 5.0625 2.078125q2.0625 2.078125 2.0625 5.34375q0 3.109375 -1.8125 5.375q-2.203125 2.78125 -6.015625 2.78125q-3.125 0 -5.109375 -1.75q-1.96875 -1.75 -2.25 -4.640625zm26.875 -13.90625l0 -2.703125l14.828125 0l0 2.1875q-2.1875 2.328125 -4.34375 6.1875q-2.140625 3.859375 -3.3125 7.9375q-0.84375 2.875 -1.078125 6.296875l-2.890625 0q0.046875 -2.703125 1.0625 -6.53125q1.015625 -3.828125 2.90625 -7.375q1.90625 -3.5625 4.046875 -6.0l-11.21875 0zm37.09375 19.90625l-2.8125 0l0 -17.921875q-1.015625 0.96875 -2.671875 1.9375q-1.640625 0.96875 -2.953125 1.453125l0 -2.71875q2.359375 -1.109375 4.125 -2.6875q1.765625 -1.578125 2.5 -3.0625l1.8125 0l0 23.0zm16.515625 -5.296875l2.703125 -0.25q0.34375 1.90625 1.3125 2.765625q0.96875 0.859375 2.484375 0.859375q1.296875 0 2.265625 -0.59375q0.984375 -0.59375 1.609375 -1.578125q0.625 -1.0 1.046875 -2.6875q0.421875 -1.6875 0.421875 -3.4375q0 -0.1875 -0.015625 -0.5625q-0.84375 1.34375 -2.3125 2.1875q-1.453125 0.828125 -3.15625 0.828125q-2.84375 0 -4.8125 -2.0625q-1.96875 -2.0625 -1.96875 -5.4375q0 -3.484375 2.046875 -5.609375q2.0625 -2.125 5.15625 -2.125q2.234375 0 4.078125 1.203125q1.859375 1.203125 2.8125 3.4375q0.96875 2.21875 0.96875 6.4375q0 4.390625 -0.953125 7.0q-0.953125 2.59375 -2.84375 3.953125q-1.875 1.359375 -4.40625 1.359375q-2.6875 0 -4.390625 -1.484375q-1.703125 -1.5 -2.046875 -4.203125zm11.515625 -10.109375q0 -2.421875 -1.296875 -3.84375q-1.28125 -1.421875 -3.09375 -1.421875q-1.875 0 -3.265625 1.53125q-1.390625 1.53125 -1.390625 3.96875q0 2.1875 1.3125 3.5625q1.328125 1.359375 3.265625 1.359375q1.953125 0 3.203125 -1.359375q1.265625 -1.375 1.265625 -3.796875zm7.4375 15.40625l0 -3.203125l3.203125 0l0 3.203125l-3.203125 0zm8.890625 0l0 -3.203125l3.203125 0l0 3.203125l-3.203125 0zm8.890625 0l0 -3.203125l3.203125 0l0 3.203125l-3.203125 0z" fill-rule="nonzero"/><path fill="#000000" fill-opacity="0.0" d="m161.2441 425.3701l397.51184 0l0 56.787384l-397.51184 0z" fill-rule="evenodd"/><path fill="#000000" d="m171.57222 453.7932q0 -4.0625 0.828125 -6.53125q0.84375 -2.484375 2.484375 -3.828125q1.65625 -1.34375 4.15625 -1.34375q1.84375 0 3.234375 0.75q1.390625 0.734375 2.296875 2.140625q0.90625 1.390625 1.421875 3.40625q0.515625 2.0 0.515625 5.40625q0 4.03125 -0.828125 6.515625q-0.828125 2.46875 -2.484375 3.828125q-1.640625 1.34375 -4.15625 1.34375q-3.3125 0 -5.203125 -2.375q-2.265625 -2.859375 -2.265625 -9.3125zm2.890625 0q0 5.640625 1.3125 7.515625q1.328125 1.859375 3.265625 1.859375q1.9375 0 3.25 -1.875q1.328125 -1.875 1.328125 -7.5q0 -5.65625 -1.328125 -7.515625q-1.3125 -1.859375 -3.28125 -1.859375q-1.9375 0 -3.09375 1.640625q-1.453125 2.09375 -1.453125 7.734375zm16.484375 11.296875l0 -3.203125l3.203125 0l0 3.203125l-3.203125 0zm22.09375 -2.703125l0 2.703125l-15.140625 0q-0.03125 -1.015625 0.328125 -1.953125q0.578125 -1.546875 1.84375 -3.046875q1.28125 -1.5 3.6875 -3.46875q3.734375 -3.0625 5.046875 -4.84375q1.3125 -1.796875 1.3125 -3.390625q0 -1.671875 -1.203125 -2.8125q-1.1875 -1.15625 -3.109375 -1.15625q-2.03125 0 -3.25 1.21875q-1.21875 1.21875 -1.234375 3.375l-2.890625 -0.296875q0.296875 -3.234375 2.234375 -4.921875q1.9375 -1.703125 5.203125 -1.703125q3.296875 0 5.21875 1.828125q1.921875 1.828125 1.921875 4.53125q0 1.375 -0.5625 2.703125q-0.5625 1.328125 -1.875 2.796875q-1.296875 1.46875 -4.328125 4.03125q-2.53125 2.125 -3.25 2.890625q-0.71875 0.75 -1.1875 1.515625l11.234375 0zm11.90625 -3.296875l2.953125 -0.25q0.328125 2.15625 1.515625 3.25q1.203125 1.078125 2.890625 1.078125q2.03125 0 3.4375 -1.53125q1.40625 -1.53125 1.40625 -4.0625q0 -2.40625 -1.359375 -3.796875q-1.34375 -1.390625 -3.53125 -1.390625q-1.359375 0 -2.453125 0.625q-1.09375 0.609375 -1.71875 1.59375l-2.640625 -0.34375l2.21875 -11.765625l11.390625 0l0 2.6875l-9.140625 0l-1.234375 6.15625q2.0625 -1.4375 4.328125 -1.4375q3.0 0 5.0625 2.078125q2.0625 2.078125 2.0625 5.34375q0 3.109375 -1.8125 5.375q-2.203125 2.78125 -6.015625 2.78125q-3.125 0 -5.109375 -1.75q-1.96875 -1.75 -2.25 -4.640625zm35.70311 6.0l0 -5.484375l-9.937485 0l0 -2.578125l10.45311 -14.84375l2.296875 0l0 14.84375l3.09375 0l0 2.578125l-3.09375 0l0 5.484375l-2.8125 0zm0 -8.0625l0 -10.328125l-7.1718597 10.328125l7.1718597 0zm17.671875 2.0625l2.953125 -0.25q0.328125 2.15625 1.515625 3.25q1.203125 1.078125 2.890625 1.078125q2.03125 0 3.4375 -1.53125q1.40625 -1.53125 1.40625 -4.0625q0 -2.40625 -1.359375 -3.796875q-1.34375 -1.390625 -3.53125 -1.390625q-1.359375 0 -2.453125 0.625q-1.09375 0.609375 -1.71875 1.59375l-2.640625 -0.34375l2.21875 -11.765625l11.390625 0l0 2.6875l-9.140625 0l-1.234375 6.15625q2.0625 -1.4375 4.328125 -1.4375q3.0 0 5.0625 2.078125q2.0625 2.078125 2.0625 5.34375q0 3.109375 -1.8125 5.375q-2.203125 2.78125 -6.015625 2.78125q-3.125 0 -5.109375 -1.75q-1.96875 -1.75 -2.25 -4.640625zm26.6875 -5.296875q0 -4.0625 0.828125 -6.53125q0.84375 -2.484375 2.484375 -3.828125q1.65625 -1.34375 4.15625 -1.34375q1.84375 0 3.234375 0.75q1.390625 0.734375 2.296875 2.140625q0.90625 1.390625 1.421875 3.40625q0.515625 2.0 0.515625 5.40625q0 4.03125 -0.828125 6.515625q-0.828125 2.46875 -2.484375 3.828125q-1.640625 1.34375 -4.15625 1.34375q-3.3125 0 -5.203125 -2.375q-2.265625 -2.859375 -2.265625 -9.3125zm2.890625 0q0 5.640625 1.3125 7.515625q1.328125 1.859375 3.265625 1.859375q1.9375 0 3.25 -1.875q1.328125 -1.875 1.328125 -7.5q0 -5.65625 -1.328125 -7.515625q-1.3125 -1.859375 -3.28125 -1.859375q-1.9375 0 -3.09375 1.640625q-1.453125 2.09375 -1.453125 7.734375zm32.8125 11.296875l0 -5.484375l-9.9375 0l0 -2.578125l10.453125 -14.84375l2.296875 0l0 14.84375l3.09375 0l0 2.578125l-3.09375 0l0 5.484375l-2.8125 0zm0 -8.0625l0 -10.328125l-7.171875 10.328125l7.171875 0zm17.671875 -3.234375q0 -4.0625 0.828125 -6.53125q0.84375 -2.484375 2.484375 -3.828125q1.65625 -1.34375 4.15625 -1.34375q1.84375 0 3.234375 0.75q1.390625 0.734375 2.296875 2.140625q0.90625 1.390625 1.421875 3.40625q0.515625 2.0 0.515625 5.40625q0 4.03125 -0.828125 6.515625q-0.828125 2.46875 -2.484375 3.828125q-1.640625 1.34375 -4.15625 1.34375q-3.3125 0 -5.203125 -2.375q-2.265625 -2.859375 -2.265625 -9.3125zm2.890625 0q0 5.640625 1.3125 7.515625q1.328125 1.859375 3.265625 1.859375q1.9375 0 3.25 -1.875q1.328125 -1.875 1.328125 -7.5q0 -5.65625 -1.328125 -7.515625q-1.3125 -1.859375 -3.28125 -1.859375q-1.9375 0 -3.09375 1.640625q-1.453125 2.09375 -1.453125 7.734375zm23.796875 0q0 -4.0625 0.828125 -6.53125q0.84375 -2.484375 2.484375 -3.828125q1.65625 -1.34375 4.15625 -1.34375q1.84375 0 3.234375 0.75q1.390625 0.734375 2.296875 2.140625q0.90625 1.390625 1.421875 3.40625q0.515625 2.0 0.515625 5.40625q0 4.03125 -0.828125 6.515625q-0.828125 2.46875 -2.484375 3.828125q-1.640625 1.34375 -4.15625 1.34375q-3.3125 0 -5.203125 -2.375q-2.265625 -2.859375 -2.265625 -9.3125zm2.890625 0q0 5.640625 1.3125 7.515625q1.328125 1.859375 3.265625 1.859375q1.9375 0 3.25 -1.875q1.328125 -1.875 1.328125 -7.5q0 -5.65625 -1.328125 -7.515625q-1.3125 -1.859375 -3.28125 -1.859375q-1.9375 0 -3.09375 1.640625q-1.453125 2.09375 -1.453125 7.734375zm23.796875 0q0 -4.0625 0.828125 -6.53125q0.84375 -2.484375 2.484375 -3.828125q1.65625 -1.34375 4.15625 -1.34375q1.84375 0 3.234375 0.75q1.390625 0.734375 2.296875 2.140625q0.90625 1.390625 1.421875 3.40625q0.515625 2.0 0.515625 5.40625q0 4.03125 -0.828125 6.515625q-0.828125 2.46875 -2.484375 3.828125q-1.640625 1.34375 -4.15625 1.34375q-3.3125 0 -5.203125 -2.375q-2.265625 -2.859375 -2.265625 -9.3125zm2.890625 0q0 5.640625 1.3125 7.515625q1.328125 1.859375 3.265625 1.859375q1.9375 0 3.25 -1.875q1.328125 -1.875 1.328125 -7.5q0 -5.65625 -1.328125 -7.515625q-1.3125 -1.859375 -3.28125 -1.859375q-1.9375 0 -3.09375 1.640625q-1.453125 2.09375 -1.453125 7.734375zm16.484375 11.296875l0 -3.203125l3.203125 0l0 3.203125l-3.203125 0zm8.890625 0l0 -3.203125l3.203125 0l0 3.203125l-3.203125 0zm8.890625 0l0 -3.203125l3.203125 0l0 3.203125l-3.203125 0z" fill-rule="nonzero"/><path fill="#000000" fill-opacity="0.0" d="m244.46272 204.50482l0 0c-42.61725 -85.73895 -65.57411 -161.00447 -51.27559 -168.11024l0 0c6.866394 -3.4123116 21.581451 9.671162 40.908035 36.372208c19.326584 26.701042 41.681564 64.83246 62.14708 106.00575l0 0c42.61725 85.73894 65.5741 161.00447 51.275604 168.11024l0 0c-6.866394 3.4122925 -21.581482 -9.671173 -40.90805 -36.372223c-19.326569 -26.70105 -41.68155 -64.83244 -62.14708 -106.00574z" fill-rule="evenodd"/><path stroke="#000000" stroke-width="1.0" stroke-linejoin="round" stroke-linecap="butt" d="m244.46272 204.50482l0 0c-42.61725 -85.73895 -65.57411 -161.00447 -51.27559 -168.11024l0 0c6.866394 -3.4123116 21.581451 9.671162 40.908035 36.372208c19.326584 26.701042 41.681564 64.83246 62.14708 106.00575l0 0c42.61725 85.73894 65.5741 161.00447 51.275604 168.11024l0 0c-6.866394 3.4122925 -21.581482 -9.671173 -40.90805 -36.372223c-19.326569 -26.70105 -41.68155 -64.83244 -62.14708 -106.00574z" fill-rule="evenodd"/><path fill="#000000" fill-opacity="0.0" d="m230.24934 135.25722l1.0393677 297.3543" fill-rule="evenodd"/><path stroke="#000000" stroke-width="1.0" stroke-linejoin="round" stroke-linecap="butt" d="m230.24934 135.25722l1.0183868 291.35437" fill-rule="evenodd"/><path fill="#000000" stroke="#000000" stroke-width="1.0" stroke-linecap="butt" d="m229.61601 426.61737l1.6675873 4.5322876l1.6358643 -4.5438538z" fill-rule="evenodd"/><path fill="#000000" fill-opacity="0.0" d="m260.1916 184.8189l1.0393677 244.69292" fill-rule="evenodd"/><path stroke="#000000" stroke-width="1.0" stroke-linejoin="round" stroke-linecap="butt" d="m260.1916 184.8189l1.0138855 238.69295" fill-rule="evenodd"/><path fill="#000000" stroke="#000000" stroke-width="1.0" stroke-linecap="butt" d="m259.55377 423.5189l1.67099 4.5310364l1.6324463 -4.5450745z" fill-rule="evenodd"/><path fill="#000000" fill-opacity="0.0" d="m290.13385 239.54068l0 193.07086" fill-rule="evenodd"/><path stroke="#000000" stroke-width="1.0" stroke-linejoin="round" stroke-linecap="butt" d="m290.13385 239.54068l0 187.07086" fill-rule="evenodd"/><path fill="#000000" stroke="#000000" stroke-width="1.0" stroke-linecap="butt" d="m288.48212 426.61154l1.6517334 4.5381165l1.6517334 -4.5381165z" fill-rule="evenodd"/><path fill="#000000" fill-opacity="0.0" d="m311.81628 288.06824l0 145.5748" fill-rule="evenodd"/><path stroke="#000000" stroke-width="1.0" stroke-linejoin="round" stroke-linecap="butt" d="m311.81628 288.06824l0 139.5748" fill-rule="evenodd"/><path fill="#000000" stroke="#000000" stroke-width="1.0" stroke-linecap="butt" d="m310.16455 427.64304l1.6517334 4.5381165l1.6517334 -4.5381165z" fill-rule="evenodd"/><path fill="#000000" fill-opacity="0.0" d="m340.72702 338.12598l1.0393982 97.60629" fill-rule="evenodd"/><path stroke="#000000" stroke-width="1.0" stroke-linejoin="round" stroke-linecap="butt" d="m340.72702 338.12598l0.9754944 91.60663" fill-rule="evenodd"/><path fill="#000000" stroke="#000000" stroke-width="1.0" stroke-linecap="butt" d="m340.05087 429.7502l1.6999512 4.5202637l1.6033325 -4.5554504z" fill-rule="evenodd"/><path fill="#000000" fill-opacity="0.0" d="m209.59842 59.884514l-2.0787354 369.6378" fill-rule="evenodd"/><path stroke="#000000" stroke-width="1.0" stroke-linejoin="round" stroke-linecap="butt" d="m209.59842 59.884514l-2.044983 363.63788" fill-rule="evenodd"/><path fill="#000000" stroke="#000000" stroke-width="1.0" stroke-linecap="butt" d="m205.90172 423.51312l1.6261902 4.5473022l1.6772308 -4.528717z" fill-rule="evenodd"/><path fill="#000000" fill-opacity="0.0" d="m355.1811 363.6916l57.826782 0l0 48.503937l-57.826782 0z" fill-rule="evenodd"/><path fill="#000000" d="m370.19672 392.95035l0 -4.703125l-4.671875 0l0 -1.96875l4.671875 0l0 -4.6875l1.984375 0l0 4.6875l4.6875 0l0 1.96875l-4.6875 0l0 4.703125l-1.984375 0zm16.9375 2.78125l-2.109375 0l0 -13.4375q-0.75 0.71875 -2.0 1.453125q-1.234375 0.71875 -2.21875 1.078125l0 -2.03125q1.78125 -0.828125 3.09375 -2.015625q1.328125 -1.1875 1.875 -2.296875l1.359375 0l0 17.25z" fill-rule="nonzero"/><path fill="#000000" fill-opacity="0.0" d="m161.2441 348.73752l397.51184 0l0 56.787415l-397.51184 0z" fill-rule="evenodd"/><path fill="#000000" d="m173.15034 388.45752l0 -3.203125l3.203125 0l0 3.203125l-3.203125 0zm8.890625 0l0 -3.203125l3.203125 0l0 3.203125l-3.203125 0zm8.890625 0l0 -3.203125l3.203125 0l0 3.203125l-3.203125 0z" fill-rule="nonzero"/><path fill="#000000" fill-opacity="0.0" d="m61.95013 417.13123l517.2913 -1.0393677" fill-rule="evenodd"/><path stroke="#000000" stroke-width="2.0" stroke-linejoin="round" stroke-linecap="butt" d="m61.95013 417.13123l517.2913 -1.0393677" fill-rule="evenodd"/></g></svg>