<svg version="1.1" viewBox="0.0 0.0 720.0 540.0" fill="none" stroke="none" stroke-linecap="square" stroke-miterlimit="10" xmlns:xlink="http://www.w3.org/1999/xlink" xmlns="http://www.w3.org/2000/svg"><clipPath id="p.0"><path d="m0 0l720.0 0l0 540.0l-720.0 0l0 -540.0z" clip-rule="nonzero"/></clipPath><g clip-path="url(#p.0)"><path fill="#000000" fill-opacity="0.0" d="m0 0l720.0 0l0 540.0l-720.0 0z" fill-rule="evenodd"/><path fill="#000000" fill-opacity="0.0" d="m132.85039 270.0l454.2992 0" fill-rule="evenodd"/><path stroke="#000000" stroke-width="3.0" stroke-linejoin="round" stroke-linecap="butt" d="m132.85039 270.0l454.2992 0" fill-rule="evenodd"/><path fill="#000000" fill-opacity="0.0" d="m132.85039 243.6693l0 52.661423" fill-rule="evenodd"/><path stroke="#000000" stroke-width="3.0" stroke-linejoin="round" stroke-linecap="butt" d="m132.85039 243.6693l0 52.661423" fill-rule="evenodd"/><path fill="#000000" fill-opacity="0.0" d="m587.1496 243.6693l0 52.661423" fill-rule="evenodd"/><path stroke="#000000" stroke-width="3.0" stroke-linejoin="round" stroke-linecap="butt" d="m587.1496 243.6693l0 52.661423" fill-rule="evenodd"/><path fill="#000000" fill-opacity="0.0" d="m105.49606 174.50394l54.708664 0l0 69.16536l-54.708664 0z" fill-rule="evenodd"/><path fill="#000000" d="m123.3836 207.77893q0 -5.078125 1.046875 -8.171875q1.046875 -3.09375 3.109375 -4.765625q2.0624924 -1.6875 5.1874924 -1.6875q2.296875 0 4.03125 0.9375q1.75 0.921875 2.875 2.671875q1.140625 1.734375 1.78125 4.25q0.640625 2.515625 0.640625 6.765625q0 5.046875 -1.03125 8.140625q-1.03125 3.09375 -3.09375 4.78125q-2.0625 1.6875 -5.203125 1.6875q-4.140625 0 -6.4999924 -2.96875q-2.84375 -3.578125 -2.84375 -11.640625zm3.625 0q0 7.046875 1.6406174 9.390625q1.65625 2.328125 4.078125 2.328125q2.421875 0 4.0625 -2.34375q1.65625 -2.34375 1.65625 -9.375q0 -7.0625 -1.65625 -9.390625q-1.640625 -2.328125 -4.109375 -2.328125q-2.421875 0 -3.859375 2.046875q-1.8124924 2.625 -1.8124924 9.671875z" fill-rule="nonzero"/><path fill="#000000" fill-opacity="0.0" d="m559.7953 174.50394l54.70868 0l0 69.16536l-54.70868 0z" fill-rule="evenodd"/><path fill="#000000" d="m590.9328 221.90393l-3.515625 0l0 -22.40625q-1.265625 1.21875 -3.328125 2.4375q-2.0625 1.203125 -3.703125 1.796875l0 -3.390625q2.953125 -1.390625 5.15625 -3.359375q2.203125 -1.96875 3.125 -3.828125l2.265625 0l0 28.75z" fill-rule="nonzero"/><path fill="#000000" fill-opacity="0.0" d="m197.20998 254.0l0 32.0" fill-rule="evenodd"/><path stroke="#000000" stroke-width="1.0" stroke-linejoin="round" stroke-linecap="butt" d="m197.20998 254.0l0 32.0" fill-rule="evenodd"/><path fill="#000000" fill-opacity="0.0" d="m151.25984 254.0l0 32.0" fill-rule="evenodd"/><path stroke="#000000" stroke-width="1.0" stroke-linejoin="round" stroke-linecap="butt" d="m151.25984 254.0l0 32.0" fill-rule="evenodd"/><path fill="#000000" fill-opacity="0.0" d="m160.20473 254.0l0 32.0" fill-rule="evenodd"/><path stroke="#000000" stroke-width="1.0" stroke-linejoin="round" stroke-linecap="butt" d="m160.20473 254.0l0 32.0" fill-rule="evenodd"/><path fill="#000000" fill-opacity="0.0" d="m188.42258 254.0l0 32.0" fill-rule="evenodd"/><path stroke="#000000" stroke-width="1.0" stroke-linejoin="round" stroke-linecap="butt" d="m188.42258 254.0l0 32.0" fill-rule="evenodd"/><path fill="#000000" fill-opacity="0.0" d="m174.48032 254.0l0 32.0" fill-rule="evenodd"/><path stroke="#000000" stroke-width="1.0" stroke-linejoin="round" stroke-linecap="butt" d="m174.48032 254.0l0 32.0" fill-rule="evenodd"/><path fill="#000000" fill-opacity="0.0" d="m179.63518 254.0l0 32.0" fill-rule="evenodd"/><path stroke="#000000" stroke-width="1.0" stroke-linejoin="round" stroke-linecap="butt" d="m179.63518 254.0l0 32.0" fill-rule="evenodd"/><path fill="#000000" fill-opacity="0.0" d="m169.32545 254.0l0 32.0" fill-rule="evenodd"/><path stroke="#000000" stroke-width="1.0" stroke-linejoin="round" stroke-linecap="butt" d="m169.32545 254.0l0 32.0" fill-rule="evenodd"/><path fill="#000000" fill-opacity="0.0" d="m141.14961 254.0l0 32.0" fill-rule="evenodd"/><path stroke="#000000" stroke-width="1.0" stroke-linejoin="round" stroke-linecap="butt" d="m141.14961 254.0l0 32.0" fill-rule="evenodd"/><path fill="#000000" fill-opacity="0.0" d="m154.33333 254.0l0 32.0" fill-rule="evenodd"/><path stroke="#000000" stroke-width="1.0" stroke-linejoin="round" stroke-linecap="butt" d="m154.33333 254.0l0 32.0" fill-rule="evenodd"/><path fill="#000000" fill-opacity="0.0" d="m164.17061 254.0l0 32.0" fill-rule="evenodd"/><path stroke="#000000" stroke-width="1.0" stroke-linejoin="round" stroke-linecap="butt" d="m164.17061 254.0l0 32.0" fill-rule="evenodd"/><path fill="#000000" fill-opacity="0.0" d="m193.04199 254.0l0 32.0" fill-rule="evenodd"/><path stroke="#000000" stroke-width="1.0" stroke-linejoin="round" stroke-linecap="butt" d="m193.04199 254.0l0 32.0" fill-rule="evenodd"/><path fill="#000000" fill-opacity="0.0" d="m183.80315 254.0l0 32.0" fill-rule="evenodd"/><path stroke="#000000" stroke-width="1.0" stroke-linejoin="round" stroke-linecap="butt" d="m183.80315 254.0l0 32.0" fill-rule="evenodd"/><path fill="#000000" fill-opacity="0.0" d="m145.53806 254.0l0 32.0" fill-rule="evenodd"/><path stroke="#000000" stroke-width="1.0" stroke-linejoin="round" stroke-linecap="butt" d="m145.53806 254.0l0 32.0" fill-rule="evenodd"/><path fill="#000000" fill-opacity="0.0" d="m208.73491 243.6693l0 52.661423" fill-rule="evenodd"/><path stroke="#000000" stroke-width="3.0" stroke-linejoin="round" stroke-linecap="butt" d="m208.73491 243.6693l0 52.661423" fill-rule="evenodd"/><path fill="#000000" fill-opacity="0.0" d="m165.20735 174.50394l87.055115 0l0 69.16536l-87.055115 0z" fill-rule="evenodd"/><path fill="#000000" d="m182.58842 207.77893q0 -5.078125 1.046875 -8.171875q1.046875 -3.09375 3.109375 -4.765625q2.0625 -1.6875 5.1875 -1.6875q2.296875 0 4.03125 0.9375q1.75 0.921875 2.875 2.671875q1.140625 1.734375 1.78125 4.25q0.640625 2.515625 0.640625 6.765625q0 5.046875 -1.03125 8.140625q-1.03125 3.09375 -3.09375 4.78125q-2.0625 1.6875 -5.203125 1.6875q-4.140625 0 -6.5 -2.96875q-2.84375 -3.578125 -2.84375 -11.640625zm3.625 0q0 7.046875 1.640625 9.390625q1.65625 2.328125 4.078125 2.328125q2.421875 0 4.0625 -2.34375q1.65625 -2.34375 1.65625 -9.375q0 -7.0625 -1.65625 -9.390625q-1.640625 -2.328125 -4.109375 -2.328125q-2.421875 0 -3.859375 2.046875q-1.8125 2.625 -1.8125 9.671875zm20.605469 14.125l0 -4.0l4.0 0l0 4.0l-4.0 0zm22.378906 0l-3.515625 0l0 -22.40625q-1.265625 1.21875 -3.328125 2.4375q-2.0625 1.203125 -3.703125 1.796875l0 -3.390625q2.953125 -1.390625 5.15625 -3.359375q2.203125 -1.96875 3.125 -3.828125l2.265625 0l0 28.75z" fill-rule="nonzero"/></g></svg>